/* XPM */
static char *result[] = {
/* columns rows colors chars-per-pixel */
"64 64 175 2 ",
"   c #49779A",
".  c #4A789A",
"X  c #4A789B",
"o  c #4B799B",
"O  c #4C799C",
"+  c #4D7A9C",
"@  c #4E7B9D",
"#  c #4F7B9D",
"$  c #4F7C9E",
"%  c #507C9E",
"&  c #517D9E",
"*  c #527D9F",
"=  c #527E9F",
"-  c #537EA0",
";  c #547FA0",
":  c #5480A0",
">  c #5580A1",
",  c #5681A1",
"<  c #5781A2",
"1  c #5782A2",
"2  c #5882A2",
"3  c #5983A3",
"4  c #5A84A4",
"5  c #5B84A4",
"6  c #5C85A4",
"7  c #5C85A5",
"8  c #5D86A5",
"9  c #5E86A6",
"0  c #5E87A6",
"q  c #5F88A6",
"w  c #6088A7",
"e  c #6189A7",
"r  c #628AA8",
"t  c #638AA8",
"y  c #638BA9",
"u  c #648BA9",
"i  c #658CA9",
"p  c #668DAA",
"a  c #678DAB",
"s  c #688EAB",
"d  c #6A90AC",
"f  c #6B90AD",
"g  c #6B91AD",
"h  c #6C91AD",
"j  c #6D92AE",
"k  c #6E93AF",
"l  c #6F93AF",
"z  c #7094AF",
"x  c #7094B0",
"c  c #7195B0",
"v  c #7296B1",
"b  c #7497B2",
"n  c #7598B2",
"m  c #7598B3",
"M  c #7699B3",
"N  c #779AB4",
"B  c #789AB4",
"V  c #799BB5",
"C  c #7A9BB5",
"Z  c #7A9CB5",
"A  c #7B9CB6",
"S  c #81A1B9",
"D  c #82A2BA",
"F  c #83A2BA",
"G  c #84A3BB",
"H  c #86A4BC",
"J  c #86A5BC",
"K  c #8AA8BE",
"L  c #8BA8BE",
"P  c #8EABC0",
"I  c #8FABC1",
"U  c #91ADC2",
"Y  c #92ADC2",
"T  c #96B1C5",
"R  c #97B1C5",
"E  c #99B3C6",
"W  c #9AB4C7",
"Q  c #9DB6C9",
"!  c #9FB7CA",
"~  c #A0B8CA",
"^  c #A1B9CB",
"/  c #A3BACC",
"(  c #A4BBCC",
")  c #A4BBCD",
"_  c #A6BCCD",
"`  c #A6BDCE",
"'  c #A7BDCE",
"]  c #A9BECF",
"[  c #AAC0D0",
"{  c #ABC0D0",
"}  c #ABC1D1",
"|  c #ACC1D1",
" . c #ADC2D1",
".. c #AEC3D2",
"X. c #B0C4D3",
"o. c #B4C7D5",
"O. c #B5C7D6",
"+. c #B7C9D7",
"@. c #B8CAD7",
"#. c #B8CAD8",
"$. c #BACBD9",
"%. c #BBCCD9",
"&. c #BCCDDA",
"*. c #BDCEDB",
"=. c #BFCFDB",
"-. c #BFD0DC",
";. c #C1D1DD",
":. c #C2D2DD",
">. c #C3D2DE",
",. c #C4D3DE",
"<. c #C5D4DF",
"1. c #C6D4DF",
"2. c #C7D5E0",
"3. c #C8D6E0",
"4. c #C9D6E1",
"5. c #CBD8E2",
"6. c #CCD9E2",
"7. c #CCD9E3",
"8. c #CEDAE4",
"9. c #CFDBE4",
"0. c #D1DCE5",
"q. c #D1DDE6",
"w. c #D3DEE6",
"e. c #D3DEE7",
"r. c #D4DFE7",
"t. c #D5E0E8",
"y. c #D6E0E8",
"u. c #D6E1E8",
"i. c #D7E1E9",
"p. c #D8E2E9",
"a. c #D8E2EA",
"s. c #D9E3EA",
"d. c #DAE3EA",
"f. c #DCE5EC",
"g. c #DDE5EC",
"h. c #DEE6ED",
"j. c #DFE7ED",
"k. c #E0E7EE",
"l. c #E0E8EE",
"z. c #E1E9EE",
"x. c #E2E9EF",
"c. c #E2EAEF",
"v. c #E3EAF0",
"b. c #E4EBF0",
"n. c #E5EBF0",
"m. c #E5ECF1",
"M. c #E6ECF1",
"N. c #E7EDF1",
"B. c #E7EDF2",
"V. c #E8EEF2",
"C. c #E9EEF3",
"Z. c #EAEFF3",
"A. c #EAF0F4",
"S. c #EBF0F4",
"D. c #ECF1F5",
"F. c #EDF2F5",
"G. c #EFF3F6",
"H. c #F0F4F7",
"J. c #F1F4F7",
"K. c #F2F5F8",
"L. c #F3F6F8",
"P. c #F4F7F9",
"I. c #F5F7F9",
"U. c #F6F8FA",
"Y. c #F7F9FB",
"T. c #F8FAFB",
"R. c #F9FAFB",
"E. c #F9FBFC",
"W. c #FAFBFC",
"Q. c #FBFCFD",
"!. c #FCFDFD",
"~. c #FDFDFE",
"^. c #FDFEFE",
"/. c #FEFEFF",
"(. c white",
/* pixels */
"                                                                                                                                ",
"                                                                                                                                ",
"                                                                                                                                ",
"                                                                                                                                ",
"                                                                                                                                ",
"                                                                                                                                ",
"                                                                                                                                ",
"                                                                                                                                ",
"                                                                                                                                ",
"                                                                                                                                ",
"                                                                                                                                ",
"                                                                                                                                ",
"                                                          o 9 k m m j 7 X                                                       ",
"                                                  . b { p.E.(.(.e.Q _ +.6.5._ j .                                               ",
"                                              $ E m.(.(.(.(.(.(.!.H       + b ..9.Y @                                           ",
"                                            G q.<.(.(.(.(.(.(.(.(.Q.D           @ I q.G                                         ",
"                                        5 4.' $ X +.(.(.(.(.(.(.(.(.W.A             $ _ ;.<                                     ",
"                                      j D.(.o..   o %.(.(.(.(.(.(.(.(.T.B               l q.s                                   ",
"                                    N U.(.(.(.X..   o =.(.(.(.(.(.(.(.(.Y.B               3 8.c                                 ",
"                                  j U.(.(.(.(.(.}     O :.(.(.(.(.(.(.(.(.Y.n               - 8.s                               ",
"                                5 D.(.(.(.(.(.(.(.'     + 1.(.(.(.(.(.(.(.(.I.x               3 q.<                             ",
"                                <.^.(.(.(.(.(.(.(.(./     @ ,.(.(.(.(.(.(.(.(.K.h               l ;.                            ",
"                              G _ T /.(.(.(.(.(.(.(.(.!     + 2.(.(.(.(.(.(.(.(.H.<               _ G                           ",
"                            & w.$   W /.(.(.(.(.(.(.(.(.R     # 0.(.(.(.(.(.(./.Q                 $ q.#                         ",
"                            E K.g     ! (.(.(.(.(.(.(.(.^.Y     * e.(.(.(.(.(.^     2 t             I Y                         ",
"                          . m.(.H.s     / (.(.(.(.(.(.(.(.^.Y     - u.(.(.(._     < g.A.r           @ 9..                       ",
"                          b (.(.(.G.p     ' (.(.(.(.(.(.(.(.^.P     : s.(.[     > d.(.(.V.q           ..j                       ",
"                          { (.(.(.(.D.y   . } (.(.(.(.(.(.(.(.~.L     , T .   - i.(.(.(.(.M.8         b _                       ",
"                          p.(.(.(.(.(.A.e   . [ (.(.(.(.(.(.(.(.!.J         = r.(.(.(.(.(.(.v.6       + 5.                      ",
"                        O E.(.(.(.(.(.(.V.q   . | (.(.(.(.(.(.(.(.Q.S       o.(.(.(.(.(.(.(.(.b.5       6.X                     ",
"                        9 (.(.(.(.(.(.(.(.v.5   . +.(.(.(.(.(.(.(.(.R.C     2 k.(.(.(.(.(.(.(.(.z.3     +.7                     ",
"                        k /.(.(.(.(.(.(.(.(.l.3   o &.(.(.(.(.(.(.(.(.Y.Z     4 x.(.(.(.(.(.(.(.(.j.1   _ j                     ",
"                        m X.b.(.(.(.(.(.(.(.(.z.3   O -.(.(.(.(.(.(.(.(.T.V     w C.(.(.(.(.(.(.(.(.a.; Q m                     ",
"                        m Q 9 N.(.(.(.(.(.(.(.(.h.1   O >.(.(.(.(.(.(.(.(.Y.m     r S.(.(.(.(.(.(.(.(.y.` m                     ",
"                        j _   w C.(.(.(.(.(.(.(.(.s.;   + <.(.(.(.(.(.(.(.(.U.v     u F.(.(.(.(.(.(.(.(.Q.j                     ",
"                        7 +.    q N.(.(.(.(.(.(.(.(.t.=   + 1.(.(.(.(.(.(.(.(.P.z     a G.(.(.(.(.(.(.(.(.9                     ",
"                        X 6.      e Z.(.(.(.(.(.(.(.(.}     @ 7.(.(.(.(.(.(.(.(.L.j     d H.(.(.(.(.(.(.E.O                     ",
"                          5.+       a G.(.(.(.(.(.(.w.*       % 0.(.(.(.(.(.(.(.(.J.d     s G.(.(.(.(.(.p.                      ",
"                          _ b         i F.(.(.(.(.u.-   . U #   * r.(.(.(.(.(.(.(.(.G.a     d J.(.(.(.(.{                       ",
"                          j ..          s G.(.(.s.:   . } (.3.@   - i.(.(.(.(.(.(.(.(.S.r     j L.(.(.(.b                       ",
"                          . 9.@           f J.f.,     ' (.(.(.3.+   : d.(.(.(.(.(.(.(.(.C.w     z P.(.m..                       ",
"                            Y I             f 1     ( (.(.(.(.(.<.+   , g.(.(.(.(.(.(.(.(.M.9     v U.E                         ",
"                            # q.$                 ! (.(.(.(.(.(.(.;.O   2 k.(.(.(.(.(.(.(.(.b.6   $ r.&                         ",
"                              G _               6 I.(.(.(.(.(.(.(.(.*.o   4 x.(.(.(.(.(.(.(.(.x.3 _ G                           ",
"                                ;.l               M Y.(.(.(.(.(.(.(.(.$.X   3 k.(.(.(.(.(.(.(.(.b.;.                            ",
"                                < q.3               V R.(.(.(.(.(.(.(.(.O..   4 c.(.(.(.(.(.(.(.D.5                             ",
"                                  s 8.-               F Q.(.(.(.(.(.(.(.(. ..   7 n.(.(.(.(.(.U.j                               ",
"                                    c 8.3               J !.(.(.(.(.(.(.(.(.]     0 B.(.(.(.U.N                                 ",
"                                      s q.l               K ~.(.(.(.(.(.(.(.(.)     e Z.(.D.j                                   ",
"                                        < ;._ $             P ^.(.(.(.(.(.(.(.(.~   $ #.6.5                                     ",
"                                            G q.I @           U ~.(.(.(.(.(.(.(./.@.q.G                                         ",
"                                              @ Y 9...b +       I ^.(.(.(.(.(.(.m.E #                                           ",
"                                                  . j _ 5.6.+._ Q a.(.(.E.p.{ b .                                               ",
"                                                          X 7 j m m k 9 o                                                       ",
"                                                                                                                                ",
"                                                                                                                                ",
"                                                                                                                                ",
"                                                                                                                                ",
"                                                                                                                                ",
"                                                                                                                                ",
"                                                                                                                                ",
"                                                                                                                                ",
"                                                                                                                                ",
"                                                                                                                                "
};
