/* XPM */
static char *result[] = {
/* columns rows colors chars-per-pixel */
"64 64 189 2 ",
"   c #53966E",
".  c #54966F",
"X  c #54976F",
"o  c #559770",
"O  c #569870",
"+  c #569871",
"@  c #579871",
"#  c #589972",
"$  c #589973",
"%  c #599A73",
"&  c #5A9A74",
"*  c #5A9B74",
"=  c #5B9B75",
"-  c #5C9B75",
";  c #5C9C76",
":  c #5D9C77",
">  c #5E9D77",
",  c #5E9D78",
"<  c #5F9D78",
"1  c #609E79",
"2  c #619F7A",
"3  c #629F7B",
"4  c #63A07C",
"5  c #64A07C",
"6  c #65A17D",
"7  c #66A27E",
"8  c #67A27E",
"9  c #67A27F",
"0  c #68A380",
"q  c #69A380",
"w  c #69A481",
"e  c #6AA481",
"r  c #6BA482",
"t  c #6BA582",
"y  c #6CA583",
"u  c #6DA684",
"i  c #6FA785",
"p  c #6FA786",
"a  c #70A886",
"s  c #71A887",
"d  c #72A988",
"f  c #73A989",
"g  c #74AA8A",
"h  c #75AB8A",
"j  c #75AB8B",
"k  c #76AB8C",
"l  c #77AC8C",
"z  c #77AC8D",
"x  c #79AD8E",
"c  c #7AAE8F",
"v  c #7BAF90",
"b  c #7CAF91",
"n  c #7DB091",
"m  c #7DB092",
"M  c #7FB193",
"N  c #80B194",
"B  c #80B294",
"V  c #82B396",
"C  c #84B497",
"Z  c #86B599",
"A  c #87B69A",
"S  c #89B79B",
"D  c #8AB79C",
"F  c #8AB89D",
"G  c #8BB89D",
"H  c #8DB99F",
"J  c #8EBA9F",
"K  c #90BBA2",
"L  c #91BCA2",
"P  c #94BEA5",
"I  c #95BEA6",
"U  c #97C0A7",
"Y  c #98C0A8",
"T  c #99C1A9",
"R  c #9BC2AB",
"E  c #9CC2AB",
"W  c #9CC3AC",
"Q  c #9FC4AE",
"!  c #9FC5AE",
"~  c #A0C5AF",
"^  c #A1C5AF",
"/  c #A3C7B1",
"(  c #A3C7B2",
")  c #A4C7B2",
"_  c #A5C8B3",
"`  c #A7C9B4",
"'  c #A8CAB6",
"]  c #A9CAB6",
"[  c #A9CBB7",
"{  c #ABCCB8",
"}  c #ACCCB9",
"|  c #ADCDBA",
" . c #AFCEBB",
".. c #AFCEBC",
"X. c #B0CFBC",
"o. c #B1CFBD",
"O. c #B1D0BE",
"+. c #B3D0BF",
"@. c #B3D1BF",
"#. c #B5D2C0",
"$. c #B5D2C1",
"%. c #B7D3C3",
"&. c #B8D4C3",
"*. c #B9D5C4",
"=. c #BBD5C6",
"-. c #BBD6C6",
";. c #BCD6C7",
":. c #BDD7C7",
">. c #BED7C8",
",. c #BFD8C9",
"<. c #C0D8CA",
"1. c #C0D9CA",
"2. c #C2DACB",
"3. c #C2DACC",
"4. c #C3DACC",
"5. c #C4DBCD",
"6. c #C4DBCE",
"7. c #C6DCCF",
"8. c #C7DDD0",
"9. c #C8DDD0",
"0. c #C8DED1",
"q. c #CADED2",
"w. c #CADFD3",
"e. c #CBDFD3",
"r. c #CDE0D5",
"t. c #CEE1D5",
"y. c #CEE1D6",
"u. c #D0E2D7",
"i. c #D0E3D8",
"p. c #D1E3D8",
"a. c #D2E3D9",
"s. c #D3E4DA",
"d. c #D4E5DB",
"f. c #D5E5DC",
"g. c #D6E6DC",
"h. c #D7E6DD",
"j. c #D7E7DD",
"k. c #D8E7DE",
"l. c #D9E8DF",
"z. c #DAE8E0",
"x. c #DBE9E0",
"c. c #DBE9E1",
"v. c #DCEAE1",
"b. c #DDEAE2",
"n. c #DDEAE3",
"m. c #DEEBE3",
"M. c #DFEBE4",
"N. c #DFECE4",
"B. c #E0ECE5",
"V. c #E1EDE6",
"C. c #E2EDE7",
"Z. c #E3EEE7",
"A. c #E3EEE8",
"S. c #E4EEE8",
"D. c #E5EFE9",
"F. c #E6F0EA",
"G. c #E7F0EA",
"H. c #E7F1EB",
"J. c #E8F1EC",
"K. c #E9F1EC",
"L. c #E9F2ED",
"P. c #EAF2ED",
"I. c #EBF3EE",
"U. c #EBF3EF",
"Y. c #ECF3EF",
"T. c #EDF4F0",
"R. c #EEF5F1",
"E. c #EFF5F1",
"W. c #EFF6F2",
"Q. c #F0F6F2",
"!. c #F1F6F3",
"~. c #F1F7F4",
"^. c #F3F8F5",
"/. c #F4F8F6",
"(. c #F5F9F6",
"). c #F6F9F7",
"_. c #F6FAF8",
"`. c #F7FAF8",
"'. c #F8FAF9",
"]. c #F8FBF9",
"[. c #FAFCFA",
"{. c #FAFCFB",
"}. c #FBFCFC",
"|. c #FCFDFC",
" X c #FCFDFD",
".X c #FDFEFD",
"XX c #FEFEFE",
"oX c #FEFFFE",
"OX c white",
/* pixels */
"                                                                                                                                ",
"                                                                                                                                ",
"                                                                                                                                ",
"                                                                                                                                ",
"                                                                                                                                ",
"                                                                                                                                ",
"                                                                                                                                ",
"                                                                                                                                ",
"                                                                                                                                ",
"                                                                                                                                ",
"                                                          X 6 h n n k 8 o                                                       ",
"                                                  . j { t.y.=.{ / s.OXOX[.z...v .                                               ",
"                                              # Y a.+.v +       S }.OXOXOXOXOXOXG.Q %                                           ",
"                                            G d.I #           Z {.OXOXOXOXOXOXOXOX5.d.G                                         ",
"                                        1 6.{ %             V [.OXOXOXOXOXOXOXOX@.. % } e.5                                     ",
"                                      a d.l               N ].OXOXOXOXOXOXOXOX%..   . @.OXT.j                                   ",
"                                    x i.3               b `.OXOXOXOXOXOXOXOX-.X   . ..OXOXOX_.M                                 ",
"                                  a i.;               x ).OXOXOXOXOXOXOXOX,.o     } OXOXOXOXOX_.j                               ",
"                                1 d.3               l /.OXOXOXOXOXOXOXOX3.O     ' OXOXOXOXOXOXOXT.5                             ",
"                                6.l               g ^.OXOXOXOXOXOXOXOX7.+     ( OXOXOXOXOXOXOXOX.X9.                            ",
"                              G {               1 !.OXOXOXOXOXOXOXOXq.@     ~ oXOXOXOXOXOXOXOXXXI { G                           ",
"                            $ d.%                 / oXOXOXOXOXOXOXr.#     E oXOXOXOXOXOXOXOXXXT   % f.*                         ",
"                            Y I             t 2     ` OXOXOXOXOXu.%     Y XXOXOXOXOXOXOXOXoXW     s !.Q                         ",
"                          . a.#           r U.M.1     { OXOXOXs.&     P .XOXOXOXOXOXOXOXoX^     i E.OXG..                       ",
"                          j +.          0 L.OXOXv.,      .OXg.=     K .XOXOXOXOXOXOXOXOX_     y T.OXOXOXv                       ",
"                          { v         7 H.OXOXOXOXl.;   . E ;     H  XOXOXOXOXOXOXOXOX]     e I.OXOXOXOX..                      ",
"                          t.+       6 D.OXOXOXOXOXOXh.-         D |.OXOXOXOXOXOXOXOX|     0 K.OXOXOXOXOXz.                      ",
"                        X y.      3 Z.OXOXOXOXOXOXOXOX&.      g {.OXOXOXOXOXOXOXOXo..   7 G.OXOXOXOXOXOX[.O                     ",
"                        6 =.    1 B.OXOXOXOXOXOXOXOXV.2       o >.OXOXOXOXOXOXOX#..   5 D.OXOXOXOXOXOXOXOX8                     ",
"                        h {   < n.OXOXOXOXOXOXOXOXA.4     j $   o 2.OXOXOXOXOX&.X   3 C.OXOXOXOXOXOXOXOXXXk                     ",
"                        n / : x.OXOXOXOXOXOXOXOXF.6     n `.w.@   O 7.OXOXOX;.X   1 N.OXOXOXOXOXOXOXOXV.o.n                     ",
"                        n { k.OXOXOXOXOXOXOXOXJ.8     c _.OXOX8.+   + 0.OX<.o   , n.OXOXOXOXOXOXOXOXA.4 / n                     ",
"                        j }.OXOXOXOXOXOXOXOXP.w     z /.OXOXOXOX4.O   # ! O   : z.OXOXOXOXOXOXOXOXF.6   { h                     ",
"                        8 OXOXOXOXOXOXOXOXY.t     h ^.OXOXOXOXOXOX<.o       - j.OXOXOXOXOXOXOXOXJ.9     =.6                     ",
"                        O [.OXOXOXOXOXOXR.u     d ~.OXOXOXOXOXOXOXOXR       X.OXOXOXOXOXOXOXOXP.w       y.X                     ",
"                          z.OXOXOXOXOXQ.a     p W.OXOXOXOXOXOXOXOXt.$       = f.OXOXOXOXOXOXY.t       + t.                      ",
"                          ..OXOXOXOX~.d     u R.OXOXOXOXOXOXOXOXp.%   $ U .   ; l.OXOXOXOXR.u         v {                       ",
"                          v OXOXOX^.h     r Y.OXOXOXOXOXOXOXOXd.*   @ e.OXX..   > c.OXOXQ.a           +.j                       ",
"                          . G.OX(.z     q P.OXOXOXOXOXOXOXOXh.-   + 9.OXOXOX}     < m.~.f           # a..                       ",
"                            Q _.c     8 H.OXOXOXOXOXOXOXOXz.:   O 6.OXOXOXOXOX]     1 f             I Y                         ",
"                            * h.%   6 D.OXOXOXOXOXOXOXOXb.,   o 1.OXOXOXOXOXOXOX)                 % d.$                         ",
"                              G { 3 A.OXOXOXOXOXOXOXOXN.1   X :.OXOXOXOXOXOXOXOX).6               { G                           ",
"                                6.D.OXOXOXOXOXOXOXOXV.3   X *.OXOXOXOXOXOXOXOX'.m               l 6.                            ",
"                                5 T.OXOXOXOXOXOXOXS.4   . $.OXOXOXOXOXOXOXOX].B               3 d.1                             ",
"                                  j _.OXOXOXOXOXF.6   . O.OXOXOXOXOXOXOXOX[.C               ; i.a                               ",
"                                    M _.OXOXOXK.9     | OXOXOXOXOXOXOXOX}.A               3 i.x                                 ",
"                                      j T.OXI.w     [ OXOXOXOXOXOXOXOX|.F               l d.a                                   ",
"                                        5 y.;.%   _ OXOXOXOXOXOXOXOX XJ             % { 6.1                                     ",
"                                            G d.-.oXOXOXOXOXOXOXOX.XL           # I d.G                                         ",
"                                              $ Q G.OXOXOXOXOXOXXXI       + v +.a.Y #                                           ",
"                                                  . v ..z.[.OXOXx./ { =.y.t.{ j .                                               ",
"                                                          o 8 k n n h 6 X                                                       ",
"                                                                                                                                ",
"                                                                                                                                ",
"                                                                                                                                ",
"                                                                                                                                ",
"                                                                                                                                ",
"                                                                                                                                ",
"                                                                                                                                ",
"                                                                                                                                ",
"                                                                                                                                ",
"                                                                                                                                ",
"                                                                                                                                ",
"                                                                                                                                "
};
