/* XPM */
static char *result[] = {
/* columns rows colors chars-per-pixel */
"64 64 163 2 ",
"   c #FABD22",
".  c #FABD23",
"X  c #FABE24",
"o  c #FABE25",
"O  c #FABE26",
"+  c #FABF27",
"@  c #FABF28",
"#  c #FABF29",
"$  c #FABF2A",
"%  c #FAC02B",
"&  c #FAC02C",
"*  c #FAC12E",
"=  c #FAC12F",
"-  c #FAC130",
";  c #FAC131",
":  c #FAC232",
">  c #FAC233",
",  c #FAC234",
"<  c #FAC335",
"1  c #FAC336",
"2  c #FAC337",
"3  c #FBC338",
"4  c #FBC439",
"5  c #FBC53B",
"6  c #FBC53C",
"7  c #FBC53D",
"8  c #FBC53E",
"9  c #FBC63F",
"0  c #FBC640",
"q  c #FBC742",
"w  c #FBC743",
"e  c #FBC744",
"r  c #FBC846",
"t  c #FBC847",
"y  c #FBC848",
"u  c #FBC949",
"i  c #FBC94A",
"p  c #FBC94C",
"a  c #FBCA4D",
"s  c #FBCA4E",
"d  c #FBCA4F",
"f  c #FBCB50",
"g  c #FBCB51",
"h  c #FBCC53",
"j  c #FBCC54",
"k  c #FBCD56",
"l  c #FBCD57",
"z  c #FBCD58",
"x  c #FBCE59",
"c  c #FBCE5A",
"v  c #FBCE5B",
"b  c #FBCE5C",
"n  c #FBCF5D",
"m  c #FBCF5E",
"M  c #FBCF5F",
"N  c #FBCF60",
"B  c #FCD164",
"V  c #FCD166",
"C  c #FCD267",
"Z  c #FCD268",
"A  c #FCD26A",
"S  c #FCD36C",
"D  c #FCD36D",
"F  c #FCD571",
"G  c #FCD572",
"H  c #FCD676",
"J  c #FCD677",
"K  c #FCD77A",
"L  c #FCD980",
"P  c #FCDA83",
"I  c #FCDB85",
"U  c #FCDC88",
"Y  c #FCDC8A",
"T  c #FCDD8C",
"R  c #FCDE8F",
"E  c #FDDE91",
"W  c #FDDF93",
"Q  c #FDDF94",
"!  c #FDE096",
"~  c #FDE098",
"^  c #FDE099",
"/  c #FDE19A",
"(  c #FDE19B",
")  c #FDE29D",
"_  c #FDE29F",
"`  c #FDE4A4",
"'  c #FDE4A5",
"]  c #FDE5A7",
"[  c #FDE5A8",
"{  c #FDE5A9",
"}  c #FDE6AB",
"|  c #FDE6AD",
" . c #FDE7AE",
".. c #FDE7AF",
"X. c #FDE8B1",
"o. c #FDE8B2",
"O. c #FDE8B4",
"+. c #FDE9B5",
"@. c #FDE9B6",
"#. c #FDEAB7",
"$. c #FDEAB9",
"%. c #FDEABA",
"&. c #FDEBBA",
"*. c #FDEBBC",
"=. c #FEEBBD",
"-. c #FEECC0",
";. c #FEECC1",
":. c #FEEDC1",
">. c #FEEDC3",
",. c #FEEEC5",
"<. c #FEEEC7",
"1. c #FEEFC9",
"2. c #FEEFCA",
"3. c #FEEFCB",
"4. c #FEF0CD",
"5. c #FEF0CE",
"6. c #FEF1CF",
"7. c #FEF1D0",
"8. c #FEF1D1",
"9. c #FEF2D2",
"0. c #FEF2D3",
"q. c #FEF2D4",
"w. c #FEF3D5",
"e. c #FEF3D7",
"r. c #FEF3D8",
"t. c #FEF4D9",
"y. c #FEF4DA",
"u. c #FEF4DB",
"i. c #FEF5DC",
"p. c #FEF5DD",
"a. c #FEF5DE",
"s. c #FEF5DF",
"d. c #FEF6E0",
"f. c #FEF6E1",
"g. c #FEF6E2",
"h. c #FEF7E3",
"j. c #FEF7E4",
"k. c #FEF7E5",
"l. c #FEF7E6",
"z. c #FEF8E7",
"x. c #FEF8E8",
"c. c #FFF9E9",
"v. c #FFF9EB",
"b. c #FFF9EC",
"n. c #FFFAED",
"m. c #FFFAEE",
"M. c #FFFAEF",
"N. c #FFFBF0",
"B. c #FFFBF1",
"V. c #FFFBF2",
"C. c #FFFBF3",
"Z. c #FFFCF4",
"A. c #FFFCF5",
"S. c #FFFCF6",
"D. c #FFFDF7",
"F. c #FFFDF8",
"G. c #FFFDF9",
"H. c #FFFDFA",
"J. c #FFFEFB",
"K. c #FFFEFC",
"L. c #FFFEFD",
"P. c #FFFFFE",
"I. c white",
/* pixels */
"                                                                                                                                ",
"                                                                                                                                ",
"                                                                                                                                ",
"                                                                                                                                ",
"                                                                                                                                ",
"                                                                                                                                ",
"                                                                                                                                ",
"                                                                                                                                ",
"                                                                                                                                ",
"                                                                                                                                ",
"                                                                                                                                ",
"                                                          X 4 a z z d 5 o                                                       ",
"                                                  . s W -.;.] W U 2.I.I.F.6.^ k .                                               ",
"                                              @ K ,.) k O       S J.I.I.I.I.I.I.d.P $                                           ",
"                                            A <.J @           C J.I.I.I.I.I.I.I.I.$.<.A                                         ",
"                                        : O.W $             M G.I.I.I.I.I.I.I.I.] X $ Q =.3                                     ",
"                                      t <.f               v S.I.I.I.I.I.I.I.I.| o   . ` I.x.s                                   ",
"                                    h >.<               v A.I.I.I.I.I.I.I.I.X.o   . _ I.I.I.Z.c                                 ",
"                                  t >.*               l A.I.I.I.I.I.I.I.I.+.o     / I.I.I.I.I.Z.s                               ",
"                                : <.<               h C.I.I.I.I.I.I.I.I.%.+     Q I.I.I.I.I.I.I.x.3                             ",
"                                O.f               f B.I.I.I.I.I.I.I.I.#.@     R I.I.I.I.I.I.I.I.L.$.                            ",
"                              A W               u M.I.I.I.I.I.I.I.I.&.+     Y I.I.I.I.I.I.I.I.P.L W A                           ",
"                            # <.$             e c.I.I.I.I.I.I.I.I.<.#     L I.I.I.I.I.I.I.I.P.I   $ 1.&                         ",
"                            K J             r z.I.I.I.I.I.I.I.I.2.&     K L.I.I.I.I.I.I.I.I.Y     p M.P                         ",
"                          . ,.@           w x.I.I.I.I.I.I.I.I.5.*     K L.I.I.I.I.I.I.I.I.R     y n.I.d..                       ",
"                          s )           0 z.I.I.I.I.I.I.I.I.8.-     H L.I.I.I.I.I.I.I.I.Q     r v.I.I.I.k                       ",
"                          W k         8 h.I.I.I.I.I.I.I.I.0.:     G K.I.I.I.I.I.I.I.I./ .   q x.I.I.I.I.^                       ",
"                          -.O       5 f.I.I.I.I.I.I.I.I.q.:     D J.I.I.I.I.I.I.I.I.~ .   9 l.I.I.I.I.I.6.                      ",
"                        X ;.      3 a.I.I.I.I.I.I.I.I.u.>     V J.I.I.I.I.I.I.I.I./ .   7 h.I.I.I.I.I.I.F.o                     ",
"                        4 ]     1 u.I.I.I.I.I.I.I.I.a.4     n D.I.I.I.I.I.I.I.I.] .   3 p.I.I.I.I.I.I.I.I.5                     ",
"                        a W   > r.I.I.I.I.I.I.I.I.f.5     m A.I.I.I.I.I.I.I.I. .o   < y.I.I.I.I.I.I.I.I.P.d                     ",
"                        z U = 7.I.I.I.I.I.I.I.I.j.8     b S.I.I.I.I.I.I.I.I.o.o   < u.I.I.I.I.I.I.I.I.a._ z                     ",
"                        z Q 4.I.I.I.I.I.I.I.I.z.0     z A.I.I.I.I.I.I.I.I.@.o   > e.I.I.I.I.I.I.I.I.f.5 U z                     ",
"                        s H.I.I.I.I.I.I.I.I.c.w     j Z.I.I.I.I.I.I.I.I.$.+   ; q.I.I.I.I.I.I.I.I.j.8   W a                     ",
"                        5 I.I.I.I.I.I.I.I.v.r     g V.I.I.I.I.I.I.I.I.%.+   = 7.I.I.I.I.I.I.I.I.f.7     ] 4                     ",
"                        o F.I.I.I.I.I.I.n.i     a N.I.I.I.I.I.I.I.I.:.@   % 2.I.I.I.I.I.I.I.I.k.9       ;.X                     ",
"                          6.I.I.I.I.I.b.t     i m.I.I.I.I.I.I.I.I.<.%   # :.I.I.I.I.I.I.I.I.v.r       O -.                      ",
"                          ^ I.I.I.I.m.i     r b.I.I.I.I.I.I.I.I.3.&   $ :.I.I.I.I.I.I.I.I.m.i         k W                       ",
"                          k I.I.I.N.a     0 z.I.I.I.I.I.I.I.I.5.*   # ;.I.I.I.I.I.I.I.I.M.a           ) s                       ",
"                          . d.I.V.g     8 j.I.I.I.I.I.I.I.I.9.-   + *.I.I.I.I.I.I.I.I.V.g           @ ,..                       ",
"                            P Z.j     5 f.I.I.I.I.I.I.I.I.w.:   O $.I.I.I.I.I.I.I.I.B.h             J K                         ",
"                            & 3.$   4 a.I.I.I.I.I.I.I.I.t.,   o O.I.I.I.I.I.I.I.I.C.j             $ <.#                         ",
"                              A W 1 u.I.I.I.I.I.I.I.I.u.2   o ..I.I.I.I.I.I.I.I.S.x               W A                           ",
"                                O.a.I.I.I.I.I.I.I.I.t.<   X } I.I.I.I.I.I.I.I.F.N               f O.                            ",
"                                3 x.I.I.I.I.I.I.I.i.2   . ' I.I.I.I.I.I.I.I.G.B               < <.:                             ",
"                                  s Z.I.I.I.I.I.s.4   . ( I.I.I.I.I.I.I.I.J.Z               * >.t                               ",
"                                    c Z.I.I.I.g.6     ! I.I.I.I.I.I.I.I.J.D               < >.h                                 ",
"                                      s x.I.k.9     E I.I.I.I.I.I.I.I.K.F               f <.t                                   ",
"                                        3 ;.{ $   T I.I.I.I.I.I.I.I.L.H             $ W O.:                                     ",
"                                            A <.[ P.I.I.I.I.I.I.I.K.K           @ J <.A                                         ",
"                                              # P d.I.I.I.I.I.I.L.J       O k ) ,.K @                                           ",
"                                                  . k ^ 6.F.I.I.7.U W ] ;.-.W s .                                               ",
"                                                          o 5 d z z a 4 X                                                       ",
"                                                                                                                                ",
"                                                                                                                                ",
"                                                                                                                                ",
"                                                                                                                                ",
"                                                                                                                                ",
"                                                                                                                                ",
"                                                                                                                                ",
"                                                                                                                                ",
"                                                                                                                                ",
"                                                                                                                                ",
"                                                                                                                                "
};
