/* XPM */
static char *result[] = {
/* columns rows colors chars-per-pixel */
"64 64 169 2 ",
"   c #AC393A",
".  c #AC3A3B",
"X  c #AD3B3C",
"o  c #AD3C3D",
"O  c #AE3D3E",
"+  c #AE3E3F",
"@  c #AF3F40",
"#  c #AF4041",
"$  c #AF4142",
"%  c #B04243",
"&  c #B14445",
"*  c #B14546",
"=  c #B24647",
"-  c #B24748",
";  c #B24849",
":  c #B34949",
">  c #B3494A",
",  c #B34A4B",
"<  c #B34B4C",
"1  c #B44C4D",
"2  c #B44D4E",
"3  c #B54E4F",
"4  c #B55050",
"5  c #B65051",
"6  c #B65152",
"7  c #B65253",
"8  c #B75353",
"9  c #B75354",
"0  c #B75455",
"q  c #B85657",
"w  c #B95758",
"e  c #B9595A",
"r  c #BA5A5A",
"t  c #BA5A5B",
"y  c #BA5B5C",
"u  c #BB5C5D",
"i  c #BB5D5E",
"p  c #BC5E5F",
"a  c #BC5F60",
"s  c #BC6061",
"d  c #BD6161",
"f  c #BD6162",
"g  c #BD6263",
"h  c #BE6364",
"j  c #BE6465",
"k  c #BF6566",
"l  c #BF6667",
"z  c #C06868",
"x  c #C06869",
"c  c #C0696A",
"v  c #C16B6B",
"b  c #C16B6C",
"n  c #C16C6D",
"m  c #C36F70",
"M  c #C37071",
"N  c #C57475",
"B  c #C67778",
"V  c #C67879",
"C  c #C7797A",
"Z  c #C87B7C",
"A  c #C87C7C",
"S  c #CA8080",
"D  c #CC8485",
"F  c #CC8586",
"G  c #CD8788",
"H  c #CD8889",
"J  c #CF8C8D",
"K  c #CF8D8D",
"L  c #CF8E8E",
"P  c #D09091",
"I  c #D19191",
"U  c #D19292",
"Y  c #D29595",
"T  c #D39697",
"R  c #D49898",
"E  c #D59B9B",
"W  c #D69C9D",
"Q  c #D69E9E",
"!  c #D79F9F",
"~  c #D79FA0",
"^  c #D8A1A2",
"/  c #D8A3A3",
"(  c #D9A3A4",
")  c #D9A4A5",
"_  c #D9A5A5",
"`  c #DAA6A6",
"'  c #DAA7A8",
"]  c #DBA9A9",
"[  c #DDADAE",
"{  c #DDAEAF",
"}  c #DEB0B1",
"|  c #DEB1B2",
" . c #DFB2B2",
".. c #DFB4B4",
"X. c #E0B4B5",
"o. c #E0B5B6",
"O. c #E0B6B6",
"+. c #E1B8B8",
"@. c #E1B8B9",
"#. c #E2B9B9",
"$. c #E2BABA",
"%. c #E3BBBC",
"&. c #E3BDBD",
"*. c #E4BFBF",
"=. c #E5C0C0",
"-. c #E5C1C1",
";. c #E5C2C2",
":. c #E6C2C3",
">. c #E6C3C3",
",. c #E6C4C4",
"<. c #E7C6C7",
"1. c #E8C7C7",
"2. c #E8C8C8",
"3. c #E9C9CA",
"4. c #E9CACA",
"5. c #E9CBCB",
"6. c #EACCCD",
"7. c #EACDCD",
"8. c #EBCFCF",
"9. c #EBD0D0",
"0. c #EBD0D1",
"q. c #ECD2D2",
"w. c #ECD3D3",
"e. c #EDD3D4",
"r. c #EDD4D4",
"t. c #EDD5D5",
"y. c #EED6D6",
"u. c #EED7D7",
"i. c #EED7D8",
"p. c #EFD8D8",
"a. c #EFDADA",
"s. c #F0DBDB",
"d. c #F0DCDC",
"f. c #F1DDDD",
"g. c #F1DEDE",
"h. c #F2DFDF",
"j. c #F2E0E0",
"k. c #F2E1E1",
"l. c #F3E1E2",
"z. c #F3E2E2",
"x. c #F3E3E3",
"c. c #F4E4E4",
"v. c #F4E5E5",
"b. c #F5E6E6",
"n. c #F5E7E7",
"m. c #F5E8E8",
"M. c #F6E8E9",
"N. c #F6E9E9",
"B. c #F7EBEB",
"V. c #F7ECEC",
"C. c #F8EDED",
"Z. c #F8EEEE",
"A. c #F8EFEF",
"S. c #F8EFF0",
"D. c #F9F1F1",
"F. c #F9F2F2",
"G. c #FAF3F3",
"H. c #FAF4F4",
"J. c #FBF5F5",
"K. c #FBF6F6",
"L. c #FCF7F7",
"P. c #FCF9F9",
"I. c #FDF9FA",
"U. c #FDFAFA",
"Y. c #FDFBFB",
"T. c #FEFCFC",
"R. c #FEFDFD",
"E. c #FFFEFE",
"W. c white",
/* pixels */
"                                                                                                                                ",
"                                                                                                                                ",
"                                                                                                                                ",
"                                                                                                                                ",
"                                                                                                                                ",
"                                                                                                                                ",
"                                                                                                                                ",
"                                                                                                                                ",
"                                                                                                                                ",
"                                                          X 4 f c c s 3 X                                                       ",
"                                                  . z ( r.P.W.W.9.Y Q } 1.<.Q d .                                               ",
"                                              # P x.W.W.W.W.W.W.T.Z       O z ' 5.H +                                           ",
"                                            C 7.=.W.W.W.W.W.W.W.W.Y.B           + F 7.C                                         ",
"                                        1 ,.~ # X } W.W.W.W.W.W.W.W.I.m             # Q %.;                                     ",
"                                      d B.W.[ .   X o.W.W.W.W.W.W.W.W.L.n               g 7.t                                   ",
"                                    b J.W.W.W.] .   X #.W.W.W.W.W.W.W.W.K.n               , 3.j                                 ",
"                                  d J.W.W.W.W.W.)     o &.W.W.W.W.W.W.W.W.K.x               & 3.t                               ",
"                                1 B.W.W.W.W.W.W.W.~     + -.W.W.W.W.W.W.W.W.H.k               , 7.;                             ",
"                                =.R.W.W.W.W.W.W.W.W.E     + *.W.W.W.W.W.W.W.W.G.g               g %.                            ",
"                              C Q K E.W.W.W.W.W.W.W.W.T     + ;.W.W.W.W.W.W.W.W.D.u               Q C                           ",
"                            % 8.#   U E.W.W.W.W.W.W.W.W.L     @ 6.W.W.W.W.W.W.W.W.V.w             # 7.@                         ",
"                            P D.p     T W.W.W.W.W.W.W.W.R.H     % 9.W.W.W.W.W.W.W.W.N.e             F H                         ",
"                          . x.W.A.y     E W.W.W.W.W.W.W.W.R.H     & w.W.W.W.W.W.W.W.W.B.q           + 5..                       ",
"                          z W.W.W.C.e     ~ W.W.W.W.W.W.W.W.R.D     * y.W.W.W.W.W.W.W.W.N.0           ' d                       ",
"                          ( W.W.W.W.B.q   . ) W.W.W.W.W.W.W.W.T.A     - i.W.W.W.W.W.W.W.W.b.7         z Q                       ",
"                          r.W.W.W.W.W.M.9   . / W.W.W.W.W.W.W.W.Y.V     = u.W.W.W.W.W.W.W.W.c.4       O <.                      ",
"                        o P.W.W.W.W.W.W.b.6   . _ W.W.W.W.W.W.W.W.I.a     ; g.W.W.W.W.W.W.W.W.l.1       1.X                     ",
"                        4 W.W.W.W.W.W.W.W.k.1   . } W.W.W.W.W.W.W.X.X       2 l.W.W.W.W.W.W.W.W.g.<     } 3                     ",
"                        f E.W.W.W.W.W.W.W.W.g.,   X O.W.W.W.W.W.@.X   @ d     4 c.W.W.W.W.W.W.W.W.d.:   Q s                     ",
"                        c ] l.W.W.W.W.W.W.W.W.g.,   X  .W.W.W.&.o   + :.K.c     7 n.W.W.W.W.W.W.W.W.t.* Y c                     ",
"                        c Y 4 v.W.W.W.W.W.W.W.W.s.:   X O.W.=.O   O *.W.W.J.l     0 N.W.W.W.W.W.W.W.W.q.! c                     ",
"                        s Q   7 n.W.W.W.W.W.W.W.W.p.=   o I +   o $.W.W.W.W.G.l     q V.W.W.W.W.W.W.W.W.U.d                     ",
"                        3 }     6 v.W.W.W.W.W.W.W.W.t.*       X O.W.W.W.W.W.W.G.h     r C.W.W.W.W.W.W.W.W.4                     ",
"                        X 1.      8 m.W.W.W.W.W.W.W.W.0.$     J W.W.W.W.W.W.W.W.F.s     i A.W.W.W.W.W.W.P.o                     ",
"                          <.O       r C.W.W.W.W.W.W.W.W.2.@   @ <.W.W.W.W.W.W.W.W.S.i     t Z.W.W.W.W.W.r.                      ",
"                          Q z         i S.W.W.W.W.W.W.W.W.2.#   # 4.W.W.W.W.W.W.W.W.Z.r     i S.W.W.W.W.(                       ",
"                          d '           s D.W.W.W.W.W.W.W.W.1.@   & e.W.W.W.W.W.W.W.W.N.0     s F.W.W.W.z                       ",
"                          . 5.+           h G.W.W.W.W.W.W.W.W.>.+   * u.W.W.W.W.W.W.W.W.n.7     h G.W.x..                       ",
"                            H F             k G.W.W.W.W.W.W.W.W.=.O   - a.W.W.W.W.W.W.W.W.c.4     l J.P                         ",
"                            @ 7.#             l H.W.W.W.W.W.W.W.W.%.o   > f.W.W.W.W.W.W.W.W.l.2   # 0.%                         ",
"                              C Q               v L.W.W.W.W.W.W.W.W.+.X   1 h.W.W.W.W.W.W.W.W.h.< Q C                           ",
"                                %.g               M P.W.W.W.W.W.W.W.W...X   , f.W.W.W.W.W.W.W.W.l.%.                            ",
"                                ; 7.,               N I.W.W.W.W.W.W.W.W.{ .   1 j.W.W.W.W.W.W.W.B.1                             ",
"                                  t 3.&               V Y.W.W.W.W.W.W.W.W.` .   3 z.W.W.W.W.W.J.d                               ",
"                                    j 3.,               A T.W.W.W.W.W.W.W.W.^     5 v.W.W.W.J.b                                 ",
"                                      t 7.g               S R.W.W.W.W.W.W.W.W.W     8 m.W.B.d                                   ",
"                                        ; %.Q #             D R.W.W.W.W.W.W.W.W.R   #  .1.1                                     ",
"                                            C 7.F +           G R.W.W.W.W.W.W.W.E.| 7.C                                         ",
"                                              + H 5.' z O       F R.W.W.W.W.W.W.x.P @                                           ",
"                                                  . d Q <.1.} Q Y t.W.W.P.r.( z .                                               ",
"                                                          X 3 s c c f 4 X                                                       ",
"                                                                                                                                ",
"                                                                                                                                ",
"                                                                                                                                ",
"                                                                                                                                ",
"                                                                                                                                ",
"                                                                                                                                ",
"                                                                                                                                ",
"                                                                                                                                ",
"                                                                                                                                ",
"                                                                                                                                ",
"                                                                                                                                ",
"                                                                                                                                ",
"                                                                                                                                "
};
