/* XPM */
static char *result[] = {
/* columns rows colors chars-per-pixel */
"64 64 247 2 ",
"   c #010101",
".  c #05050A",
"X  c #090A0E",
"o  c #090A17",
"O  c #0D1019",
"+  c #141519",
"@  c #020F29",
"#  c #181A28",
"$  c #1A1E31",
"%  c #251934",
"&  c #1E2025",
"*  c #1D2237",
"=  c #282A37",
"-  c #2E2C37",
";  c #1F2942",
":  c #272A43",
">  c #2C3244",
",  c #363947",
"<  c #31314A",
"1  c #353A53",
"2  c #473750",
"3  c #3B4353",
"4  c #3B4763",
"5  c #474858",
"6  c #4E5059",
"7  c #5D605E",
"8  c #464B62",
"9  c #4A5566",
"0  c #565967",
"q  c #5C5C6A",
"w  c #505573",
"e  c #565B74",
"r  c #635C6B",
"t  c #635D73",
"y  c #5B616B",
"u  c #4F617E",
"i  c #5A6377",
"p  c #66676B",
"a  c #6E726C",
"s  c #646572",
"d  c #666877",
"f  c #6B6B74",
"g  c #6D6C7A",
"h  c #716877",
"j  c #6C727B",
"k  c #767679",
"l  c #BC6D39",
"z  c #8F6A59",
"x  c #BE724D",
"c  c #947B6D",
"v  c #B67E68",
"b  c #C16E41",
"n  c #C77949",
"m  c #C57A56",
"M  c #C17F61",
"N  c #7E817C",
"B  c #86857B",
"V  c #9E8573",
"C  c #A98877",
"Z  c #BB8872",
"A  c #B98976",
"S  c #CC854B",
"D  c #CC8B4D",
"F  c #D0854A",
"G  c #D28B4C",
"H  c #CC904F",
"J  c #D4944E",
"K  c #CB8355",
"L  c #CB8857",
"P  c #CC845C",
"I  c #D58755",
"U  c #D28C53",
"Y  c #D48C5A",
"T  c #CF9554",
"R  c #D39454",
"E  c #D79659",
"W  c #D59C5A",
"Q  c #D6A15D",
"!  c #D9A35E",
"~  c #CB8967",
"^  c #D48B67",
"/  c #D89467",
"(  c #DB9C64",
")  c #CA8C73",
"_  c #CD8F70",
"`  c #C99378",
"'  c #D49373",
"]  c #D89978",
"[  c #E19C6D",
"{  c #D5A463",
"}  c #D8A766",
"|  c #D9AC6B",
" . c #D3AD71",
".. c #DAA778",
"X. c #DAB374",
"o. c #D7B579",
"O. c #DBB57C",
"+. c #DBBA7D",
"@. c #E3A47A",
"#. c #E1B075",
"$. c #5B6986",
"%. c #5C708F",
"&. c #6A7488",
"*. c #6D728D",
"=. c #767987",
"-. c #7B7B82",
";. c #6A7899",
":. c #6F7DA3",
">. c #897789",
",. c #837B88",
"<. c #7C828A",
"1. c #7A8599",
"2. c #7B8AA5",
"3. c #7F91B2",
"4. c #83848B",
"5. c #878888",
"6. c #95948B",
"7. c #858894",
"8. c #8B8C93",
"9. c #938B93",
"0. c #8B9298",
"q. c #969799",
"w. c #A99286",
"e. c #BB9786",
"r. c #A89897",
"t. c #9FA19D",
"y. c #ADA598",
"u. c #8990A9",
"i. c #8895A8",
"p. c #979BA5",
"a. c #899BB9",
"s. c #A39BA4",
"d. c #A19FBE",
"f. c #9CA3A8",
"g. c #9AA6B8",
"h. c #A6A6A8",
"j. c #B2ABAB",
"k. c #A7ABB5",
"l. c #B3AEB7",
"z. c #A9B1B9",
"x. c #B9BAB9",
"c. c #C79A88",
"v. c #D79D84",
"b. c #C29E91",
"n. c #D8A388",
"m. c #D4B787",
"M. c #DBBA83",
"N. c #DCBD8C",
"B. c #CDAC90",
"V. c #D4A897",
"C. c #D7BA95",
"Z. c #E5A986",
"A. c #E4B691",
"S. c #CAB4A7",
"D. c #DABCA7",
"F. c #E6BAA4",
"G. c #DDC08D",
"H. c #DEC394",
"J. c #DDC39C",
"K. c #E6C294",
"L. c #E1C49A",
"P. c #DDC3A4",
"I. c #D9C5A9",
"U. c #DDC3AC",
"Y. c #DBC6B5",
"T. c #DBC7B6",
"R. c #DDCABB",
"E. c #E2C7A8",
"W. c #E3CAAC",
"Q. c #F2C8AC",
"!. c #E4C7B7",
"~. c #E3CBB4",
"^. c #E3CDBB",
"/. c #E5D1BC",
"(. c #8E9AC0",
"). c #96AACB",
"_. c #98AAC8",
"`. c #A2ADC2",
"'. c #AAB6C7",
"]. c #B7BCC6",
"[. c #ADBBD3",
"{. c #A8BAD8",
"}. c #B3BED7",
"|. c #B0BEE1",
" X c #BBC2CA",
".X c #AEC0DE",
"XX c #B3C2DB",
"oX c #BAC7D8",
"OX c #ADC2E4",
"+X c #B4C4E4",
"@X c #B7C9E4",
"#X c #B4C7EA",
"$X c #B6C9EB",
"%X c #BBCCEC",
"&X c #BED1ED",
"*X c #BACDF1",
"=X c #BED1F0",
"-X c #C5C5C8",
";X c #C4CAD8",
":X c #CBD1DA",
">X c #D9D2D0",
",X c #E5CEC2",
"<X c #E4D3C4",
"1X c #E8D3C5",
"2X c #E4D5CA",
"3X c #E9D6CB",
"4X c #E5D9CD",
"5X c #E9DACD",
"6X c #F7D9C0",
"7X c #E5DCD3",
"8X c #E9DDD3",
"9X c #E6DED9",
"0X c #E9DDD8",
"qX c #E7E1D7",
"wX c #E6E3DD",
"eX c #E9E3DC",
"rX c #F9E9DC",
"tX c #C3CEE3",
"yX c #C2CEEB",
"uX c #C6D3E5",
"iX c #C4D3ED",
"pX c #C9D6EC",
"aX c #C6D8EE",
"sX c #CBDAED",
"dX c #D6DCE8",
"fX c #D3DDED",
"gX c #C0CFF0",
"hX c #C5D4F0",
"jX c #C9D6F1",
"kX c #C5D9F1",
"lX c #CBDAF1",
"zX c #D2DEF1",
"xX c #DCE3E7",
"cX c #D6E1ED",
"vX c #DCE3ED",
"bX c #D5E1F1",
"nX c #DCE4F1",
"mX c #DFE8F1",
"MX c #E5E5E3",
"NX c #E9E5E2",
"BX c #E7E9E5",
"VX c #EAE8E5",
"CX c #E3E6EB",
"ZX c #E5E8EB",
"AX c #E8E9EB",
"SX c #E2E6F1",
"DX c #E4E9F0",
/* pixels */
"V r.w.S.w.c c e.y.C v c S.rX,X2XD.V.e.c.V.D.V.c.V.v.v.V.` _ ] ] v.n.F.n._ ) v.' v.n.v.Z.v.' ^ m m m ^ M m x m n m n x b b b b l ",
"w.j.y.S.z c b.C C c C e.,X,XF.>.S.!.D.D.v.F.F.V.' v.' m ' ] v._ ] ] _ ] Z.' ] ] ~ v.' m ^ ] ' ^ m M m ^ F n I n n I ( S I I F G ",
"V V S.b.z z >.z v e.e.e.e.e.V.v.W.6XD.) ) ) v.v.' ] ] ] ^ ] ..Z...@./ / / ' ] Z...@...^ ^ ^ ^ [ Y / [ / / I S S n ( E Y [ R F F ",
"V V C.A z v v e.b.v V.D.n.A ) ) ' Z ) ' M F.Q.Z.~ ] ' ^ / ] ..Z...P P Y / ( ( K / ( @.[ [ [ / E Y I I I E ( K U G F U ( ! J S D ",
"w.I.C w.D.b.e.v c.V.V.v.c.` ~ x m ` Q.A.] ' _ ' Z.Z.] Y m I K L I I I U R R U E R G U ( / W E D R E U D D U R D T R E W E E J R ",
"/./.C Y.1X!.e.V.F.V.v M m ~ _ ] @.F.E.] M I Y K Y ^ K Y I E Y Y R E R E W R U E R R T H W W W T T E W R W W ! { } }  .| { { { { ",
"U.e.A c.v V.c.v.) v ] ] ' ' ' ^ ' ] ] [ / / Y E I Y U G E E R G G D D T E E E W Q ! W W W { Q } { { } | | X.| X.O.X.M.M.+.+.+.+.",
"b.Z ` c.v v v V.v.n.] _ ~ ^ ' ^ ~ ~ [ / I I E J G G F G J R R R E W ! ! ! } | | } | #.X.X.o.X.o.+.+.M.+.M.M.M.M.G.G.N.G.N.G.G.H.",
"V.c.c.V.v v.Z.) v.Z.~ ] Z.] ^ P L ( Y F U I G G J J J J W ( { } | | X.X.o.X.O.+.M.+.G.G.G.G.G.K.K.L.K.H.L.H.J.H.J.J.J.I.I.W.~./.",
"F.v F.V.v ' ' ~ @.~ ' Z.Z.~ K / [ E S G G G J W Q ! } | | X.O.O.M.M.M.N.N.K.L.L.E.L.L.H.J.J.J.J.J.E.U.W.W.U.W.~.I.T./.~.^.^.3X4X",
"c.c.v.M M ^ ^ ^ ] ^ [ Y S I Y E U D R T E ! } X.o.o.+.G.N.G.N.L.P.L.P.P.E.D.E.D.U.U.~.W.T.~.~.~.~.^.^.^.^.,X^.1X3X<X<X3X3XqXqX4X",
"M v.' ' ^ m ^ ^ m Y Y K Y I G G J Q { { | X.O.+.N.K.L.P.P.I.~.~.~.^././.,X1X1X1X1X<X<X1X1X3X1X1X<X3X3X3X5X5X5X5X5X5X7X5XqXwXwXqX",
"' Z.M M m I Y I F U D ( E J H W ! | X.o.N.N.C.E.I.~.~.^.,X<X1X1X1X2X3X3X3X7X5X8X4X4X3X3X4X3X4XqX7XqX7X5X8X7X7XqX9XqX9XZXMXMXCXxX",
"' v.M m [ #.^ F Y U W W D T { | O.M.M.F.E.W.^.^./.1X3X3X4X2X7X8X4XqX8X0X0X0X0X0XeXeX0XwXqXwXwXwXeXwXwXwXNXNXNXMXNXZXdXvXfXfXzXfX",
"Z.^ ^ [ A.[ U J R E Q T {  .o.M.G.L.W.!././.2X2X3X0X8XqXNXNXNXNXBXBXMXCXCXCXCXCXBXMXCXZXvXCXCXvXxXCXvXvXvXxXxXcXvXsXsXsXsXsXsXsX",
"Z.I / @.[ U G J J W Q | X.M.G.J.E.~./.1X1X5X9X9X9XMXVXZXCXvXdXdXfXfXsXfXjXfXfXfXsXcXfXsXcXsXfXsXfXsXfXsXfXsXsXsXaXaXsXsXpXsXlXsX",
"^ [ E ( I J J J Q | X.M.N.L.W.^./.1X3X4XqXwXBXCXxXdXdXfXsXpXuXpXaXiXjXkXpXiXaXkXlXpXsXsXpXpXjXpXsXaXaXlXlXsXaXsXaXlXsXiXlXlXlXlX",
"/ I E J R E ! | X.O.N.L.W.~./.1X3XqX9XwXBXCXdXfXsXsXjXpXiXkXkXhXaXiXiXiXaXaXlXaXiXiXpXjXlXjXlXkXlXsXaXiXlXiXkXaXaXiXiXaXaXaXiXkX",
"( G E E ! ! | #.M.K.E.~././.5X5XqXNXBXZXdXsXpXpXiXkXgXgXyXuXiX%X=X&X%XiXyXiXiXhXiXiXiXhXkXjXaXlXsXiXsXaXiXkXiXkXkXiXaXkXkXkXkXkX",
"( R E ! | X.+.G.L.W./.1X4X7XqXMXZXCXfXsXsXpXsXiXhXgX*XgX%X%X%X*X*X%X%X%XyX*X=X=XiXpXpXhXiXjXiXaXkXkXkXkXiXhXiXjXiXlX&XkXhXhXkXkX",
"! ! | X.+.+.H.W.^.^.1X8XqXqXNXAXvXfXuXaXhXiX=X%XgX%X#X|.$X$X#X#X#X$X#X*X$X*X*X$XyXyXyXiXaX&XaXiXiXkXhXyXhXgXgXhXhXyXyXhXgXgXjXhX",
"} X.+.+.G.L.W.^.1X5X5XeXeXNXCXdXuXpXpXiX%X=X%X$X%X%X|.{._.a.a.(.a.(.).).{.OXOX#X%X%X%X%X&X&X&XhXhXyXiX=XhXhXhXhXyXhXhXhXiXyXjXgX",
"+.+.G.J.W.~.^.4X5X8XeXZXCXxXsXuXkXkX&X&X*X$X$XOX).(.u.;.u.g.1.u $.$.%.%.:.3.).{.OXOX*X#X*X*X$X&X%X*X*X*X*X*X%X%X$X*X$X%X%X$X%X%X",
"+.G.L.W./.<X5X5X0X9XMXvXbXuXjXjXiX&X%X%X$X|.).3.%.*.e 4 4 w 1 : ; ; 1 4 u 4 %.%.2.(.).|..X@X$X@X{.|.{.}.}.}.XXXXXX[.}.oXoX}.[.tX",
"L.W././.1X5X8X0XeXBXxXzXaXpXpXyXiXyX$X#X{.,.:.$.%.4 @ @ @   # = . > = o ; ; 1 4 4 u $.a.@Xg.2.g.g.`.i.g.z.g. X:X:Xz.z.z.'.z.f.:X",
"W././.5X3X8XeXNXCXcXsXjXaXaXiXyXyX#X#X).:.$.$.1 *.2 o # O O O . . # # O o $ : ; 1 4 4 4 2.1.i <.&.&.<.=.q.7.4.-Xx.k.0.q.t.f.N 5.",
"/.1X5XqX0XNXAXxXdXlXjXhXaXuX&X&X$XOX).;.w $.< $     o .   X   X . .   X X O @ $ $ 1 9 j 3 p N 9 d e q 0 d =.s s.-X8.<.q.0.x.j a ",
"1X5XqXqXNXSXvXfXsXjXpXiXuX&X&X$XOX).;.u < 1 $ + # . . . . . . X . . .   o & o O # # $ * 3 3 9 u 5 p.=.g r t r s -X5.=.0.a 8.N N ",
"qXqXwXBXZXcXsXsXkXjXiXhXyXiX$XOX).:.$.< : % $ # O . . X             X .   X X O o * > 5 5 , > 9 > h.k.6 k h r 0 l.h.7 f.j 7 a t.",
"qXeXBXxXfXlXlXkXhXhXhXgX=X%X@X{.u.$.1 : : o o o o X   O = - - = & O   . . . . . & O = = > , , , q =.-X3 0 h r 6 q.x.q <.j a <.a ",
"BXxXmXsXjXkXkXhXhXgXyXyX%X$X{.a.2.w < : % o O o o . - , - - & & = - = . . o X X O O 6 0 5 3 5 5 =.q 0.q f f f 0 -.-X<.f j p 5.a ",
"BXcXaXaXkXlXkXhXhXyXyXyX$X+X).1.2.0 % = - % o O $ - - +           . = > # o # o $ = , e e 8 e 0 3 6 y =.g r f q p -X7.d N N 6.q.",
"cXsXpXpXkXhXhXgX&XiX&X$X.X{.3.j *.2 2 2 - # $ $ 3 -     .       .     = 5 3 = - % , 0 1.*.w $.e 0 t =.=.s q f d y x.q.j 0.q.k. X",
"iXhXjXpXyXjXyXuXiXiX@X@X.Xz.1.&.$.8 2 2 < < = < 5   .               X   + y 3 4 1 2 5 =.u.$.$.=.0 h 7.s s q d d f  Xk.4.z.]. X;X",
"sXkXhXiXyXyXyXyX%X%X$X.X'.a.&.d r t t 2 % % 1 6 -   .                 &   0.).u t >.h =.2.&.;.d q t t r s f -.k k  X Xg. XoX&XaX",
"iXyXuXpXyXuXuXtX@X@XOX`.f.0.=.=.d h >.>.2 6 t f   .                   +   1.&X).d.u.>.*.*.$.&.g h 9.,.p k 9.h.q.f.;X;X].&XaXsXbX",
"iXiXuXyXiX%X%X%X$X+X[.k.0.0.1.=.=.4.>.r.9.s.l.p.  +                   X   N $XOX}.k.h 7.u.,.:.t =.s.r.4.7.q.].l.].XX@XiXkXlXbXbX",
"iXiXyXiXhX%X%X$X+X[.'.p.5.q.q.8.5.h.r.j.s.s.s.,.  +                   &   t.aXOX}.'.p.,.=.:.>.>.-.l.l.p.k.'.;XXX%XuXfXbXbXbXcXcX",
"%XiXyXiXyX%XOX.X[.z.p.5.<.k 6.q.6.6.r.r.h 5 i p   .                   +   q.XX@X+X}.].h.0.k.s.s.s.j.-Xz. X;X@XjXlXbXcXdXcXnXvXnX",
"yXtXyX$X&X@X.X Xk.8.q.7.f f.t.z.r.>.>.h t y i <.,   .               O   7 f.i.OX+X X Xj.s.k.l.].].-X}.oXtXjXlXbXzXzXbXnXvXmXnXxX",
"yXtX%X%X+X[.'.k.7.<.8.7.q.6.j.y.q.k r r 5 d e [.p.  #   .       . X   . j 1.2.$X@X X>XT.-XS.;X-X;XtXuXsXlXzXcXcXcXvXxXnXvXnXmXZX",
"%X%X%X}.oX}.p.8.<.6.N <.k.6.t.6.5.h f 5 8 &.u.tXsXy                 - y i %.a.$X.XoX:X:XdX;X@XtXgXlXzXfXbXcXnXcXvXvXvXvXnXSXxXvX",
"%X%X}.`.:X X7.=.k N k k k B V B ,.h q 5 e e ).%XuXh.<.y 3 & & & - 3 y 9 u 1.{.$XXXdX:X;X@XpXaXlXzXzXfXcXvXvXnXnXnXnXmXCXCXCXZXZX",
"+X{.`.g.x.].4.8.p 5.a 5.6.B B B 9.k 6 s d d _.%XoXg.&.j y 0 y 6 7 9 9 i 1.a.@X@X%XuXtXlXzXlXbXcXdXnXnXvXvXcXnXvXmXZXCXCXCXZXVXNX",
"[.'.p.<.q.-Xj 8.k k q.t.N t.6.B 5.4.y 3 9 j _.@X$XOXg.2.y 9 9 i u i <.1.a.$X&XaXsXfXbXfXzXcXcXvXvXvXvXdXvXmXCXZXvXCXZXAXAXZXZXwX",
"k.f.=.j j -Xq.g k a a t.N T.y.B k 5.k 6 y &.i._.OX#X@X Xg.1.1.1.2.g..X@XkXkXkXcXfXfXbXbXbXvXvXvXvXvXnXSXZXxXxXMXZXZXZXBXMXMXMXNX",
"7.>.h h 9 h.x.h 7 5.a a 6.x.j.6.6.=.y 0 y <.<.g.oX@X@X@XoX.X[.[.@XkXkXkXkXsXbXcXvXvXnXnXnXnXSXnXnXSXSXSXCXCXBXBXBXwXwXNXBXBXwX9X",
"7.,.r p 0 =.-Xh.6 8.t.N 6.6.q.t.8.<.N N i 0.0.g.oX:X&X&X&XaXsXlXsXsXsXcXcXcXcXmXvXvXnXnXnXnXSXCXCXCXCXDXZXBXMXMXwXMXNXVXNX9X9XwX",
"d h r h q p f.-X5.p h.B 5.6.j.r.h.q.4. X Xz.].XX@XuXsXzXsXzXzXsXfXfXfXnXvXnXvXmXCXnXnXCXCXCXCXCXZXMXZXMXMXwXMXVXVXVXeXwX9XeXeX9X",
"*.0 t h f s 4.z.].k 4.6.B 6.y.x.x.j. X;XtXuXiXsXsXzXsXcXbXbXzXnXvXnXnXnXvXvXSXvXCXCXCXCXCXZXZXZXBXMXMXMXwXwXNXNXwXqXqXqXqX4X2X<X",
"<.s s ,.8.k 5.h.].j.q.j.x.x.T. X:XpXaXiXlXlXlXlXbXbXvXbXnXbXfXnXvXvXvXnXmXvXvXZXCXSXCXMXZXCXBXBXwXwXMXeXNXeXeX9XqXqX7X7X2X3X4X7X",
"p.0.7.q.h.f.h.z.-X;X].-X-X:X;X&XsXsXcXbXcXcXcXvXcXxXvXvXnXnXCXCXvXZXCXCXvXCXMXCXCXCXZXMXMXMXxXwXwXeXwXwXqXqX0X0X7X4X>X7X0X8X4X2X",
"`.[.'.'. XoXoXoXoX&X&XaXaXaXaXcXbXbXcXvXnXcXnXvXvXxXdXSXvXCXdXSXCXdXAXCXCXCXBXMXNXBXNXwXBXwXwXwXqXqXwXqX7X4X7X7X4X2X4X4X3X2X2X<X",
"iXiXaXsXaXaXlXsXcXaXcXsXzXzXcXcXcXnXnXvXvXnXbXnXnXnXSXSXnXvXCXCXCXCXAXVXMXMXMXMXNXNXwXwXwXwXwXqXqXqX7X7X7X7X7X4X2X2X2X<X<X<X<XR.",
"sXsXsXsXsXzXsXsXcXbXbXbXcXcXcXmXmXvXvXnXvXvXSXSXSXSXCXCXCXCXCXZXMXCXMXMXMXNXNXNXwXeXwXeXwXwXqX4X7X7X9X7X4X2X<X2X2X1X2X2X<XT.D.I.",
"cXbXcXbXcXvXmXbXcXcXcXcXmXxXmXmXnXSXZXCXSXZXCXSXZXSXZXMXZXZXMXNXxXNXNXNXwXeX9XeXNXeXqX9X4X7X7X9X7X9X2X<X2X2X3X3X3X<X<XT.I.I.R.^.",
"bXnXbXnXcXvXcXvXcXmXmXvXmXvXmXmXSXCXCXCXCXCXZXZXZXAXBXBXMXMXBXwXqXwXeXNXeXeXeXqX7X7X7X7X7X7X4X4X2X<X2X5X3X3X2X,XR.T.R.~.~.R.U.P.",
"vXnXvXvXvXnXnXnXmXxXmXmXvXZXmXZXZXCXZXZXVXNXZXBXMXNXwXwXBXwXwXwXeXeXeXeXqX7X4X0X7X7X7X7X4X2X2X<X2X3X5X4X,XT.R.T.R./.^.~.D.D.I.E.",
"nXvXvXCXnXnXnXCXmXmXBXZXZXAXZXZXCXBXCXMXMXMXMXMXMXwXeXeXwXwXwXqXeXqX9X7X7X7XqX4X4X7X2X>X<X2X2X2X4X<XR.T.T.R.^.T.Y.I.D.F.W.~.W.D.",
"SXSXnXCXSXSXCXZXBXZXZXBXAXZXZXZXMXNXwXNXNXNXMXwXwXeXqXeXwXwX7X7XqX7X7X4X5X4X4X2X2X2X,X2X2X<X<XR.T.T.!.^.^.Y.U.I.P.I.W.~.E.P.C.m.",
"SXSXSXCXZXCXNXBXNXCXBXMXMXMXNXMXNXNXwXeXNX9XwXwXeX7X7X7X7X7X7XqX4X7X4X2X2X4X<X>X>X2X,X<XR.R.T.^./.^.~.Y.I.D.I.I.W.P.P.H.B.C.m.m.",
"CXCXCXVXBXMXBXMXwXwXMXMXNXNXNX9XNXNXNXeX0X9X9X7X7X7X7X7X7X7X>X4X4X2X2X<X/.<X<X<X<X,XT.R.R.^.^.^.Y.I.I.U.I.I.J.C.G.C.C.B.m.m.M.M.",
"AXBXNXNXMXMXMXNXwXwXMXBXNXwX9XeX9X9X9X7X7X7X9X7X7X4X4X7X4X4X2X<X2X<X<X<X<XR.R.R.R.^.!./.^.Y.Y.D.D.P.E.E.I.m.m.B.m.m.m.o.o.G.o. .",
"MXNXMXNXNXNXeXwXwXwX9X9X7X9X0X7X7X9X7X0X7X2X2X7X4X3X8X2X<X<X<X>X<XR.R.R.T.R.R.R.Y.Y.!.Y.I.D.P.C.J.J.C.C.G.m.m.m.m.G.m.m. .`  . ."
};
