/* XPM */
static char *result[] = {
/* columns rows colors chars-per-pixel */
"64 64 241 2 ",
"   c #010101",
".  c #03040B",
"X  c #07080C",
"o  c #0A0A0D",
"O  c #030512",
"+  c #060914",
"@  c #0C0C13",
"#  c #05091B",
"$  c #0B0D1B",
"%  c #100E19",
"&  c #0E1015",
"*  c #0E121C",
"=  c #151618",
"-  c #13141C",
";  c #070B24",
":  c #0B1225",
">  c #131523",
",  c #181A27",
"<  c #141A2B",
"1  c #000D36",
"2  c #171C33",
"3  c #22182D",
"4  c #231D36",
"5  c #1D2029",
"6  c #1D2233",
"7  c #1D253B",
"8  c #232529",
"9  c #262838",
"0  c #32263A",
"q  c #2E3138",
"w  c #34373D",
"e  c #1D3A58",
"r  c #272C46",
"t  c #372943",
"y  c #2B3247",
"u  c #373947",
"i  c #353A4A",
"p  c #2A3651",
"a  c #383C56",
"s  c #483650",
"d  c #463B53",
"f  c #3D414A",
"g  c #3A4456",
"h  c #3C4864",
"j  c #42454D",
"k  c #424553",
"l  c #474A59",
"z  c #514A58",
"x  c #4A515C",
"c  c #54565A",
"v  c #65645A",
"b  c #464B64",
"n  c #594E64",
"m  c #4B5263",
"M  c #485569",
"N  c #535664",
"B  c #565867",
"V  c #545B6B",
"C  c #5C5B6B",
"Z  c #4A5774",
"A  c #535B75",
"S  c #5B5E72",
"D  c #545A78",
"F  c #615A6A",
"G  c #6B5D72",
"H  c #5A626C",
"J  c #5C6474",
"K  c #5A677A",
"L  c #65656B",
"P  c #6F746F",
"I  c #72726A",
"U  c #686775",
"Y  c #646A74",
"T  c #656B7B",
"R  c #6B6D7B",
"E  c #746979",
"W  c #6B737B",
"Q  c #737374",
"!  c #777879",
"~  c #807F7B",
"^  c #7C807E",
"/  c #87857C",
"(  c #D5A159",
")  c #D7A865",
"_  c #DBB478",
"`  c #5A6785",
"'  c #5E718E",
"]  c #646C86",
"[  c #7A6C82",
"{  c #6C7384",
"}  c #6A7588",
"|  c #757884",
" . c #7C7C84",
".. c #737B8B",
"X. c #7A7C8B",
"o. c #676C90",
"O. c #646E90",
"+. c #697795",
"@. c #6D7A9C",
"#. c #737D93",
"$. c #757A98",
"%. c #837D87",
"&. c #8B7991",
"*. c #7A8187",
"=. c #7D828D",
"-. c #6F809B",
";. c #7A8698",
":. c #7988A6",
">. c #7B8DAC",
",. c #7E8FB0",
"<. c #868885",
"1. c #84838C",
"2. c #8C8C8C",
"3. c #918D8B",
"4. c #94928A",
"5. c #9A968C",
"6. c #868694",
"7. c #8B8B92",
"8. c #838D9C",
"9. c #948A97",
"0. c #8C9297",
"q. c #939394",
"w. c #9A9A96",
"e. c #949399",
"r. c #9C9B9B",
"t. c #A29594",
"y. c #A7969A",
"u. c #9EA19B",
"i. c #A3A29D",
"p. c #878DA5",
"a. c #8694A8",
"s. c #969AA6",
"d. c #818EB2",
"f. c #889AB8",
"g. c #939EB6",
"h. c #A398A3",
"j. c #AF9FAF",
"k. c #9BA4A9",
"l. c #8EA1BD",
"z. c #97A5B9",
"x. c #AFAFA7",
"c. c #A8A7A9",
"v. c #B6B4AC",
"b. c #A7AAB5",
"n. c #B4ABB5",
"m. c #A9B3BB",
"M. c #BAB7B9",
"N. c #DBBB89",
"B. c #E1BF93",
"V. c #DCC291",
"C. c #E1C499",
"Z. c #D3C5B0",
"A. c #E3C9A8",
"S. c #E3CCB5",
"D. c #E7D1B6",
"F. c #8F9DC2",
"G. c #9AAAC6",
"H. c #96ADCD",
"J. c #A1AEC4",
"K. c #AAAECE",
"L. c #A8B5C7",
"P. c #B7BBC5",
"I. c #A4B5D2",
"U. c #A9B9D4",
"Y. c #A5BBDC",
"T. c #ABBDDD",
"R. c #B3BBD4",
"E. c #AABEE2",
"W. c #B0BEE2",
"Q. c #C4BDCA",
"!. c #BBC3CD",
"~. c #ADC1DC",
"^. c #BAC5D3",
"/. c #B4C4DC",
"(. c #BAC6D9",
"). c #ADC2E3",
"_. c #AFC5E7",
"`. c #B3C5E4",
"'. c #BAC7E7",
"]. c #B4C9E5",
"[. c #BBCBE4",
"{. c #B4C6EA",
"}. c #B5C9EB",
"|. c #BBCCEC",
" X c #BFD1E4",
".X c #BED1EC",
"XX c #B7CCF0",
"oX c #BBCDF0",
"OX c #BED1F1",
"+X c #C6C6C9",
"@X c #D9CDC5",
"#X c #DBD3CA",
"$X c #C6CAD7",
"%X c #D1CED0",
"&X c #CBD2DC",
"*X c #D6D6D9",
"=X c #E6CEC1",
"-X c #E7D7C8",
";X c #E4D6CB",
":X c #E4DBD2",
">X c #E9DDD3",
",X c #E6DED9",
"<X c #E6E2D6",
"1X c #EAE2D7",
"2X c #E5E3DC",
"3X c #EAE4DC",
"4X c #C2CEE5",
"5X c #C1CFEC",
"6X c #C4D2E4",
"7X c #CAD6E5",
"8X c #C4D3ED",
"9X c #CAD6EC",
"0X c #C6D9EE",
"qX c #CCDAED",
"wX c #D8DCE5",
"eX c #D3DDEC",
"rX c #DADFEA",
"tX c #C1CFF0",
"yX c #C5D4F1",
"uX c #C9D6F1",
"iX c #C6D9F0",
"pX c #CBDAF1",
"aX c #D2DEF1",
"sX c #DEE2E6",
"dX c #D6E1ED",
"fX c #DCE3ED",
"gX c #DEE8EF",
"hX c #D5E1F1",
"jX c #DBE4F1",
"kX c #DEE8F1",
"lX c #E4E5E3",
"zX c #E9E6E2",
"xX c #E6E9E5",
"cX c #E9E9E4",
"vX c #E2E5EB",
"bX c #E9E7EB",
"nX c #E6E9EC",
"mX c #E9EAEC",
"MX c #E2E6F1",
"NX c #E3E9F2",
"BX c #E9EAF0",
/* pixels */
"( ( ) _ _ _ N.V.C.A.A.S.D.D.-X-X>X-X:X3X,X*X<XlXxXvXnXvXgXfXfXeXwXeX0XeXuXqXeX9X9X9XuX9XqXaX0XqXaXeXqX9XpXqX9XeX9X9XqXeX9X9XqXqX",
") _ _ _ V.V.V.A.A.A.D.D.-X-X>X>X;X<X2X,XmXnXsXgXfXfXwXqXqX9X7X6X7X7X8X9X8XuX9X9X9X8X9X8X9XpXiXpX9X0XpX7X7XpX9XpX9X7XpX0X9XpXpXqX",
"_ _ N.N.V.A.D.S.S.-X-X-X;X:X:X:X3XzXbXvXvXfXfXeXqX9X7X8X8XiX8X8XuXpX8XpXuXpXyXuXpXpX9XpXpX0X0X0X0X0X0XaXpX6XuXpXuXuXuXiXiX8X0X9X",
"N.B.B.A.D.D.S.=X;X-X;X:X1X2X<XcXxXlXwXrXaXqX7X7XpX9X9XuX8XuXuXuX5XyXyX.X8X8X6X5X8X9X9X8X9XuX7X0X0X7XuXuXpXuXpXuXuXpXpXpXpX9XiX9X",
"B.A.A.D.S.S.D.;X;X-X>X,X3XzXxXnXfXeX9X7X9X8X7XpX9X8X8XyX9X5X8XyXyXtXtXtX.XOX.XyX5X5X8XyXyX9XuXuX8X9XtX9XuXuX9XuXpXiX8XiX9XiX9X9X",
"A.A.D.S.-X;X-X:X1X<X3XlXvXvXfXeXeX0XqX9X9X9X8X|.8X|..X.X|.|.OX|.|.|.oXoX|.[.|.|.|.yXyX5XyX|.5XyX8X8XyXyXuXuXuX8X0X0X0X0X0XiXiXiX",
"D.S.=X-X;X;X<X<X3XlXnXNXjXhXeX7XpX8X0XiX9X8X5XtXOX|.|.OX|.}.[.|.XX}.XX{.|.tXoX|.|.tX5X|.|.5X8X8X8X7XyX5XtX9XuX9X9X9X8X0XiXiXiXiX",
"S.=X-X>X<X<X3X3XbXNXjXjXhX6X7XpXiXyX8X.X8X].|.oX}.}.}.XX|.].}.{.XXW.XXXX{.}.}.}.XXXXOXOXoX|.|..X5X8XyXyXuX8X5XuX9X.X.XiXiXuXiXyX",
"-X-X>X>X,X3X3XzXlXfXeX7X7X9X7XiXtXOXtXOXXX}.XXXXXX{.{.|.W.E.E.E.E.Y.Y.E.E.)._.XXXX_.XX_._.XXoX.X5X|.5XtX|.yXiX0XyXuXyXyXtXuXuX9X",
">X>X>X,XzXxXlXlXfX7X6X0X9X9X8X8XoXoXOXXX}.{.XXW.{.W.K.F.F.:.+.:.f.>.,.:.>.H.,.F.H.Y.).E.)._.].|.}.}.[.tX|.yXOX.X5XOXyXyXuXtX5XyX",
">X>XzXzXlXsXvX7X7X9X0XyX8X8X|..XoXoXXXW.}.W.W.K.F.$.p.@.a.G.J.g.' ` +.+.' O.' ` @.,.f.Y.Y._.E._.`.XXXX}.yXOX.XXX|.tXyX5XyX5X5X5X",
"3X3XlXvXgXdX7XqX9X9X9XyX.X.X.X|.XXXXW.W.T.H.d.@.d.$.o.] o.&.b.#.M Z h a Z h ` D ' ' ` l.>.,.H.Y.E._.}.).}.}.].].}.oX|.|.tX|.yXtX",
"3XzXrXrXaX9X9XuXuX8XyX8X.X[.}.|.W.W.W.F.,.$.+.$.o.D e r r 1     2 2 7 7 1 7 r h h h h h ` ` +.,.>.f.I.Y.I.~.].].`.{.}.XX{.XX}.|.",
"bXbXrXaX9X9X9XuXuX5X5X5X.X|.}.`.W.Y.F.@.@.` D a p r 2 1 2 6 6 6 y 2 # < i i ; : p e r g h h h Z ' ' @.H. Xf.H.~.U.`.T.~.W.`.`.T.",
"vXrXaX9XaX9X9X9XtX5XyX|.|.{.`.).H.@.o.o.h D f.8.i < 2 O $ > % , , - #   y u   , 2 < r r g e g M h A A K !.(.:.J.K. Xz./.U.z.G.U.",
"qXeXuXuXuX4X9X5X5X5XtXoXW.E.Y.f.@.o.o.D r a C V @ - , . - . O     . O %     + $ + O 9 2 e 7 r e h p K K h z.a...p.g.a.z.G.8.0.z.",
"uXeXuXyX8X8X6X8X8X.X.X}._.~.f.+.` ` o.r t 4     + .   +   o %   @ X   X & o o @ @ . * > : 6 6 7 M g A { x K ;.K *.;.{ W ;.;.*.=.",
"uX9XuXyX.X8X8X|.|..X_._.Y.>.@.' e a a ; 2 ; > * @       .   X     o X     . .   . = - + $ * 6 : y l } s.g N 0.K M W ..J V T | H ",
"uX9XuX8X9X8X[.8X}.]._.).,.+.' h p a a 2 6 * -   . X   X .     .   X X     .   X   8 q . + $ : < ; i y c g y H { K g J { J N J N ",
"uXuX5X8X8X X8X|.{.`.Y.d.@.` Z r r 7 ; t 5 5 - . X .   . . . - . . + . X   . @ .   . o   * + + 5 6 9 9 6 q g g J W J y } s.T | C ",
"uXyXyXuX|..X.X|.'.E.G.@.` ` p r t < > .   @ + @ . . + * .   . O .     . X . +       . . & @ @ > , 2 9 V i H y y V N C x P.%.R 1.",
"8X5X|.|..XOX8X].R.F.f.$.Z b r 4 p < O % O - % . O .   & , u j w w w q -     . . . X . X     q 8 , f l l f f f y a l H ; P.*Xy L ",
"yXtX8X|.OX|.{.).G.d.$.` D a t t 3 3 O > . > % > + & w f w w q 8 8 8 q u w 9 + . X . & & X + 8 , $ > 9 9 r 9 y i i g B 6 *.vX .u ",
"yX4X8X.X}.].).Y.f.G.d.o.b t 3 4 0 3 # > O O O + + u j 8                 8 u i O + + . .   - - X * u i r g f i l g q 6.*.9 ^.7.6 ",
"5X5X5X5X].].~.G.>.;.;.8.r t t 4 0 0 % % % , 9 q k q       .         .       q f 5 X > > X X * * > k T C m b k i x l N ..u 6.=.u ",
"yXyX'.5X].~.Y.l.-.K } J d s t s t 4 % 3 2 , 9 l q   . .                 .     w x 5 * > < * : i 9 q b A m b b b R x i B z C  . .",
"5X'.5XW.~.L.L.a.} } W g d d s t s 3 4 3 r 9 j u   @                         o   j l < 7 < : : 9 9 0 N T o.A Z V ] k V b z B | =.",
"5X'.'.'.~.(.g.;...#.J J s s n s s 3 a 0 2 f N   .               .           o   o H g 7 y y 7 9 c u 6.8.] D K ` S M T m { 1.R 0.",
"tX}.]./.G.^.=...W H V Y V d n s t 4 r k 7 B u   X                             &   x V g h h p t z n V #.a.o.o.D @.&.b B [ b.n R ",
"}._.).L.z.m.a.} ..J N W | G &.s s 2 r d n S o                                 o   , 8.K e Z b n F d x X.z.+.` +.` U C n C E C Y ",
"`./.I.z.z.s.6.=...W R J L G 9.&.F n U C X.U   o                                 =   P.R.>.` ` &.%.~ E =.;.#.o.#.#.C U F U [ z U ",
"{.T.G.m.0.*.6.=.=.6.=.X.X.E y.y.&.&.9.p.Q. .  &                                 ,   z.yXE.H.&.j.&.&.6.T K ] } S { { n %.9.2.B W ",
"U.U.m.b.2.k.c.X.X. .^ w.y.y.j.&.y.M.P.n.+X<.  =                                 =   a.0XI.).R.K.h.U U &.p.$.] p.] n 6.U j.9.L Q ",
"R.^.s.k.P 7.e.s.s.w.^ 5.j.y.y.Z.y.e.9.1.7.L   o                                 &   *.6X).).U.R.j.| ] s.s.$.p.p.] S e.E M.j.! s.",
"m.b.0.=.*.*.Q 7.2.2.y./ t.t.j.&.%.z k B | C   X                                 8   P.&X_.XX_.L.P.0.X.&.X.{ &.$.%.[ U 9.M.M.r.b.",
"s.2.h.!  .1.6.e.q.c.x.~ / y.y.~ [ n S { T Q   o                                 =   +X&X].XX].~.L.R.e.0.#...6.9.9.9.6.s.n.+Xk.k.",
"<.0.0.7.! %.M.r.y.v.u.L 3.~ G G n S B ` J 8.x   o                             =   z c.m./.}.].R.R.!.b.b.0.0.P.P.h.y.r.n.c.&XP.P.",
"^ 0.s.W 1.<.r.r.M.x.x.q.E L F G b C R S ` [.s.  8                   .       . o   1.s.p.I.}.[.~.!.+XZ.x.r.b.c.n.n.n.n.$XP.!.^.!.",
"k.P 6.7.+Xr./ v.x.<.*./ I E U d b B X.o.g.5X7Xx   =                         =   k h.s.p.G.oX`.R.!.+XM.M.v.c.h.n.P.Q.+X$X^.(.(.7X",
"q.*.W ! c.i.5.4.4.r.3. .U F F i b J ] ;.R./.eX+X8   =                     &   , R { ..$.H.OX`.R.!.*X#X+X*X%X!.&X$XQ.R.'.4XpXpXpX",
"! ! W ! ~ I t.t./ / ~ G ~ F z g b A ` g.].|.6X$Xq.q   & X           X X o   w K H K -.:.I.{.`.L.$X$X%X*XwXwX$X^.Q.5X5XpXaXpXpXhX",
"Q L 2. .3.I v 5.~ I 5.%.F C x Y ] B K f.].].8Xb.s.7.l           X       X c P H A ` :.G.).]./.R.wX*XwX&X$X^.(.|.uXpXpXaXaXaXhXeX",
"w.v <.<.i./ / / / ~ 2.r.E n N C L T } g.`.{.5XL.6...*.W x q & = = = q l H H h M A } :.I.}.]./.6XrX$X$X(.4X7XaXpXpXpXaXhXdXeXfXwX",
"^ u.w.2./ / x./ 3.5.<.9. .F c k N Y ..f.).{.[./.8.;.T J W H H L Y H N H g f H K -.>.f.].].`.{.6XQ.$X7XpXpXpX0XhXaXaXeXeXrXeXfXfX",
"v ^ x.v./ / Z.5.5.I I <.%.W x c x x *.>.U._.].[.J.;.;.K M x M x x f x M H K K -.>.f.~.]..X.X8XpXuXaXaXaXhXpXdXdXdXfXeXfXMXMXrXjX",
"^ c ^ ^ / / #Xx.! 5.! ! <.<.c N Y W *.;.z.).}.}.}.J.z.k.W H K M H -.K K -.-.-.,.G._.|.8X0X0XeXaXaXaXaXaXdXhXdXdXdXsXfXfXeXfXfXrX",
"<.^ v ^ w.u.+XZ.3.4.e.1.! F H f x *.} ;.g.I.`.}.).[.~.z.k.-.*.} -.;.} -.>.z.I.]..X0XiXiX0XaXeXqXaXaXjXaXjXeXdXdXfXgXjXfXjXrXMXfX",
"0.4.^ ^ 4.i.u.w.c.w.7.7.Y ! Y ^ K W W ..a.J.Y.R.[.].[. X~.m.k.f.a.a.G.~./. X0X0X0X0XqXaXeXeXeXjXjXjXrXjXkXdXgXfXfXfXMXjXMXNXNXNX",
"^ M.^ 4./ 5./ 4.i.k.2.0.=.! Q =.Y Y ^ *.a.m.(. X~.~.]. X[.(.(./.(.[.8X8XuXuXuXaXqXeXqXaXhXrXjXrXjXjXjXjXjXjXjXMXjXMXfXvXvXMXNXgX",
"^ v.^ ^ 2./ 4.v.i.w.c.c.*.<.^ ^ ^ 0.;.=.k.m.^.0X&X XXX X.X8X.X0X0X0X0XpXpXpXeXaXeXhXjXdXfXfXfXrXjXfXjXjXMXrXMXMXMXMXvXvXvXvXfXnX",
"^ =.w.^ 4./ u.x.t.x.x.c.k.r.2.M.m.m.k.k.z.L.!.&X0X0X.XhX0X0XaXpXpXqXaXaXqXaXaXaXdXdXjXdXfXfXvXjXMXMXMXrXMXMXrXvXvXvXsXvXvXnXbXvX",
"P 2.4.5.4./ w.i.v.#XM.M.n.x.m.!.+XL.L.^./. X X X XdX0X0XqXaXaXqXqXdXdXaXeXjXrXjXdXgXfXfXMXvXnXbXMXrXvXMXvXMXvXvXvXvXbXvXvXlXxXlX",
"2.2.r.u.v.v.v.Z.M.Z.*X$XM.!.!.!.^.6X9X6X9X9X9XuXqXdXdXeXhXhXhXdXhXrXeXjXjXjXjXjXsXfXjXNXMXvXfXMXrXrXnXvXvXBXvXbXbXlXxXlXxXlXxXlX",
"$Xu.M.%XP.*X$X+X&X!. X$X(.6X6X0XpX8X6XuXpX0XpXaXhXdXhXhXhXhXhXdXjXjXfXfXfXrXrXMXNXkXgXvXMXgXvXMXvXMXvXvXbXbXbXvXvXxXlXxXlX2XlX3X",
"&X+XP.$X^.^.&X(.6X X7X9XqXqX0X0XpX0XpXaXaXaXhXeXdXgXdXdXdXhXdXgXrXjXfXgXvXvXvXfXNXvXfXrXsXnXgXnXBXsXbXlXnXvXlXzXbXbX2XlX2XcX3X3X",
"^.6X(.6X6X9X0XqXqXqXqX9XeXqXaXeXaXeXjXeXjXeXrXrXdXgXgXdXgXkXgXdXMXfXvXfXrXMXMXfXfXfXrXlXsXnXnXnXsXbXbXzXlXlXvXlXlX3X2X2X3X3X3X,X",
"pXpXpXpXpX0XqXqXdXeX0XhXhXeXhXhXfXdXfXfXdXfXfXfXrXrXrXjXgXgXgXfXvXfXfXvXMXMXsXsXNXgXnXnXvXvXxXxXxXxXxX2XxXlXsX2X2X2X2X<X<X<X<X3X",
"hXiXqX0XqXqXdXdXhXhXhXhXdXdXdXgXgXdXdXjXfXfXjXfXvXjXfXrXfXrXgXvXvXvXvXvXrXnXbXvXsXnXxXlXxX2XsXcXxXxX2XxXxX2X2XlX<X2X<X<X3X3X1X<X",
"hXqXeXhXdXgXdXdXgXhXhXgXfXgXdXdXfXdXhXjXjXhXkXfXjXNXMXMXMXfXvXgXMXrXlXvXvXbXBXbXlXlXlXxXcX3XxXxXxX2X3X2X2X2X2X<X2X<X<X<X<X<X:X:X",
"hXdXdXdXgXdXdXdXdXdXdXgXgXfXgXgXfXfXkXjXjXfXjXNXMXNXvXvXvXrXfXsXvXvXnXnXbX2XvXzXxX2XxX2XcXxX3X2X2X2X3X3X<X2X3X2X3X<X<X:X:X;X>X>X",
"gXdXfXfXfXdXjXhXfXgXgXgXfXkXfXjXMXvXvXMXBXBXMXvXrXrXsXlXvXlXnXnXxXvXsXlXlXlXzX2XxX3XxXxXlX,X,X3X2X3X3X3X2X3XzX,X*X;X;X,X<X<X1X:X",
"dXgXgXgXjXfXjXkXjXNXjXgXgXsXgXBXMXBXMXvXfXrXvXfXBXbXbXbXnXmXnXlXxXlXlXxXlXlXzX3X3X<X3X3X,XzXlX3X3X3X2X<X:X:X;X;X>X>X:X,X>X:X#XS.",
"gXgXjXkXgXgXgXvXgXfXfXkXvXnXnXvXsXrXvXvXMXvXBXBXbXbXlXvXvXxXlXnXlXxXxX2XlXlX2X2X3X<X3X3X3XzX2X3X<X#X:X:X;X:X:X1X>X1X:X;X#X@X#X;X",
"gXkXdXgXjXNXfXMXNXfXNXnXsXsXvXvXvXbXnXBXBXbXlXbXbXlXlXbXvXxXxX2XlX3X2X2X3X2XzX3X3X3X3X3X>X,X<X:X:X:X>X:X>X1X>X;X-X-X;X;X-X-X-X;X"
};
