/* XPM */
static char *result[] = {
/* columns rows colors chars-per-pixel */
"64 64 238 2 ",
"   c #010102",
".  c #04050B",
"X  c #0A0A0C",
"o  c #09070A",
"O  c #14090D",
"+  c #040613",
"@  c #060914",
"#  c #0B0C14",
"$  c #0B0D1B",
"%  c #080919",
"&  c #0D111D",
"*  c #0F1315",
"=  c #121214",
"-  c #12141D",
";  c #1A1B1D",
":  c #16181E",
">  c #140D1B",
",  c #270E11",
"<  c #3C1414",
"1  c #290E11",
"2  c #0D1325",
"3  c #131524",
"4  c #151924",
"5  c #1C1D23",
"6  c #151B2B",
"7  c #1A1C2C",
"8  c #16162A",
"9  c #161D33",
"0  c #0B1026",
"q  c #261D35",
"w  c #241C2D",
"e  c #1E2127",
"r  c #1C2234",
"t  c #1D253B",
"y  c #152235",
"u  c #23252B",
"i  c #26272B",
"p  c #252A3C",
"a  c #2A2C3C",
"s  c #272735",
"d  c #32243B",
"f  c #2E3138",
"g  c #32353B",
"h  c #383B3F",
"j  c #461616",
"k  c #501918",
"l  c #4F312E",
"z  c #66231F",
"x  c #1D2540",
"c  c #2B2B44",
"v  c #262B45",
"b  c #382B45",
"n  c #2C3243",
"m  c #29334B",
"M  c #323444",
"N  c #353A42",
"B  c #353A4A",
"V  c #3A3D4C",
"C  c #373948",
"Z  c #2D3852",
"A  c #3B3D53",
"S  c #363C56",
"D  c #42334C",
"F  c #493C56",
"G  c #412F49",
"H  c #3C4149",
"J  c #3C4353",
"K  c #3C445D",
"L  c #39465B",
"P  c #3B4965",
"I  c #3D516E",
"U  c #43454C",
"Y  c #424653",
"T  c #454C5C",
"R  c #4B4D5D",
"E  c #474957",
"W  c #524B5E",
"Q  c #4A555E",
"!  c #52535D",
"~  c #57595F",
"^  c #484B64",
"/  c #564C63",
"(  c #4C5363",
")  c #4D546C",
"_  c #495768",
"`  c #535463",
"'  c #545C6C",
"]  c #5B5C6C",
"[  c #575866",
"{  c #4B5875",
"}  c #545C73",
"|  c #535D7B",
" . c #595C75",
".. c #494F70",
"X. c #615D6C",
"o. c #67586D",
"O. c #665D73",
"+. c #5C636D",
"@. c #55616A",
"#. c #5C6374",
"$. c #59657A",
"%. c #62636D",
"&. c #676667",
"*. c #78766C",
"=. c #626373",
"-. c #646B74",
";. c #646C7B",
":. c #6A6977",
">. c #726D7B",
",. c #746777",
"<. c #6B727C",
"1. c #69727B",
"2. c #747474",
"3. c #73747C",
"4. c #797A7B",
"5. c #6E706B",
"6. c #81757C",
"7. c #7F827C",
"8. c #86867D",
"9. c #908E7F",
"0. c #596785",
"q. c #5F7391",
"w. c #636B83",
"e. c #656B88",
"r. c #657283",
"t. c #6D7483",
"y. c #6B748A",
"u. c #6B7788",
"i. c #737583",
"p. c #7A7484",
"a. c #7C7B83",
"s. c #747C8C",
"d. c #777B8A",
"f. c #6B7993",
"g. c #6C7C9C",
"h. c #687496",
"j. c #757C95",
"k. c #676E92",
"l. c #6D7EA0",
"z. c #827C84",
"x. c #837B89",
"c. c #8A798E",
"v. c #7C828E",
"b. c #798287",
"n. c #7E849A",
"m. c #7D8A9B",
"M. c #788496",
"N. c #7888A6",
"B. c #7E92B3",
"V. c #838484",
"C. c #8C8B85",
"Z. c #83848B",
"A. c #8C8C8B",
"S. c #88878B",
"D. c #918C87",
"F. c #93938C",
"G. c #979488",
"H. c #838592",
"J. c #8B8C93",
"K. c #858896",
"L. c #968B98",
"P. c #8B929A",
"I. c #939494",
"U. c #94949B",
"Y. c #95999C",
"T. c #9C9C9C",
"R. c #999896",
"E. c #8B9086",
"W. c #A69899",
"Q. c #A39E8F",
"!. c #9DA09B",
"~. c #A4A29C",
"^. c #A7A59C",
"/. c #838BA5",
"(. c #8592A4",
"). c #8A97AA",
"_. c #9899A5",
"`. c #8394B2",
"'. c #8A99B7",
"]. c #8D9AB4",
"[. c #A59CA4",
"{. c #B29DA1",
"}. c #9AA3AA",
"|. c #97A5B8",
" X c #8DA0B9",
".X c #AAA5AC",
"XX c #A7A7A7",
"oX c #B3ACAB",
"OX c #B6B5AD",
"+X c #A7ABB5",
"@X c #B2ACB5",
"#X c #B4AFBA",
"$X c #AAB3BA",
"%X c #B4B3B4",
"&X c #B7B7BA",
"*X c #ADB0AA",
"=X c #C2BFBC",
"-X c #BFC1BF",
";X c #899DC1",
":X c #919FC3",
">X c #99AAC8",
",X c #9EB1CE",
"<X c #9DB1D3",
"1X c #93A6C7",
"2X c #A5ABC2",
"3X c #A3B3CB",
"4X c #A8B5C6",
"5X c #B7BBC7",
"6X c #A3B5D5",
"7X c #AABAD4",
"8X c #A5B6DA",
"9X c #ACBDDB",
"0X c #A6BADA",
"qX c #B2BCD6",
"wX c #A8BEE2",
"eX c #C1BAC4",
"rX c #BAC3CC",
"tX c #AEC1DC",
"yX c #B3C3DB",
"uX c #BBC6D8",
"iX c #ADC3E4",
"pX c #ABC8E4",
"aX c #B3C5E4",
"sX c #B4C9E5",
"dX c #BBCAE5",
"fX c #B4C6EA",
"gX c #B5C9EB",
"hX c #BACBEC",
"jX c #B9C6E9",
"kX c #B9CDF2",
"lX c #BDD1F4",
"zX c #C7C7C8",
"xX c #C6C9D6",
"cX c #D1D4DB",
"vX c #C5CCE3",
"bX c #C8D3E7",
"nX c #C3D3F3",
"mX c None",
/* pixels */
"mXmXmXmXmXmXmXmXmXmXmXmXmXmXmXmXmXmXmXmXmXmXmXmXmXmXmXmXmXmXmXmXmXmXmXmXmXmXmXmXmXmXmXmXmXmXmXmXmXmXmXmXmXmXmXmXmXmXmXmXmXmXmXmX",
"mXmXmXmXmXmXmXmXmXmXmXmXmXmXmXmXmXmXmXmXmXmXmXmXmXmXmXmXmXmXmXmXmXmXmXfXkXmXmXmXmXmXmXmXmXmXmXmXmXmXmXmXmXmXmXmXmXmXmXmXmXmXmXmX",
"mXmXmXmXmXmXmXmXmXmXmXmXmXmXmXmXmXmXmXmXmXmXmXmXmXgXmXmXmXjXnXwXkXfXfXkXkXgXkXmXmXmXmXmXmXmXmXmXmXmXmXmXmXmXmXmXmXmXmXmXmXmXmXmX",
"mXmXmXmXmXmXmXmXmXmXmXmXmXmXmXmXmXmXmXmXmXmXmXmXlXnXgXkXkXwXkXkXkXgXfXgXiXkXkXgXmXmXmXmXmXmXmXmXmXmXmXmXmXmXmXmXmXmXmXmXmXmXmXmX",
"mXmXmXmXmXmXmXmXmXmXmXmXmXmXmXmXmXmXmXmXmXmXmXjXkXfXwXwX9X9X8X<XwX<X<X<X8XwXwXpXpXpXgXfXgXmXmXmXmXmXmXmXmXmXmXmXmXmXmXmXmXmXmXmX",
"mXmXmXmXmXmXmXmXmXmXmXmXmXmXmXmXmXmXmXmXnXwXkXjXwX9X8X8X:X:Xl.`.;XB.`.B.B.<X;X;X<XwXpXpXiXfXfXkXhXgXhXmXmXmXmXmXmXmXmXmXmXmXmXmX",
"mXmXmXmXmXmXmXmXmXmXmXmXmXmXmXmXmXmXmXnXwXnXjX8X<X:X`.c.].'.'.;Xg.h.h.q.q.N.l.l.N.;X1X0XiXfXpXkXkXlXkXmXmXmXmXmXmXmXmXmXmXmXmXmX",
"mXmXmXmXmXmXmXmXmXmXmXmXmXmXmXmXmXmXfXnXwX8X1X:X`.j.k.k.c.'.2Xc.| { 0.0.0.{ 0.0.0.N.N.1X1X<X<XwXwXgXnXfXmXmXmXmXmXmXmXmXmXmXmXmX",
"mXmXmXmXmXmXmXmXmXmXmXmXmXmXmXmXmXnXwXwX8X:Xl.l.l.g.0.0.} k.n.=.L P S m S P { { 0.0.0.N.N.N.B.1X<X<XgXpXiXmXsXsXhXmXmXmXmXmXmXmX",
"mXmXmXmXmXmXmXmXmXmXmXmXmXmXmXmXjXwXwX:Xc.j.k.k.e...m v m t u 5 t 9 x x y x m S I P P I 0.0.q.N.B. X<XtX0XtXsXpXaXaXgXgXgXmXmXmX",
"mXmXmXmXmXmXmXmXmXmXmXmXmXmXmXfXwX8X:Xl.l.k.0...P Z 9 9 9 8 $ 4 p r 0 8 n n 2 y Z Z m P I I { 0.q.M.N.,XuX>X,XtXiXaX9XaXiXaXaX9X",
"mXmXmXmXmXmXmXmXmXmXmXmXmXmXfXfX8X;Xl.k.0.0.k.e.m 9 6 0 0 6 4 7 s 6 + % C N $ 0 q t t Z L L L I I 0.$.m.yX,X X,X7XsX6XqX9X7X9XsX",
"mXmXmXmXmXmXmXmXmXmXmXmXmXaXfX<X;Xk.0.k.S ../.s.a 0 7 . $ $ # > # # + + u s @ & 3 0 r p m v Z P I I ) { ].rXm.).|.7X|.4X3X'.].4X",
"mXmXmXmXmXmXmXmXmXmXmXmXaXfX<XB.k.k.k...v B R Y - # : + # O , .   . , ;     # # # + r r v x v Z P L $.$._ ).B.b.P.).B.).|.P.m.}.",
"mXmXmXmXmXmXmXmXmXmXmXkXpX8X;Xl.0...e.S c v 4 : # . . X   < z < < , k < + + X X + + $ 8 y y y v T K #.1.( 1.m.1.u.m.u.s.m.m.M.v.",
"mXmXmXmXmXmXmXmXmXmXpXgXwX;XN.q...^ ^ 9 9 8 . . + .   .   < z j < , k j . o o . o = - $ * 2 9 7 B K 1.K.Q ` m.$.#.u.s.#.+.t.t.1.",
"mXmXmXmXmXmXmXmXmXmXsXpX1Xl.k.0.m S Z 8 8 $ - # o .       O , < 1 , j 1     .   o 5 u @ @ & 6 2 y A +.d.T L u.1.' @.;.;.[ ] :.] ",
"mXmXmXmXmXmXmXmXmXaXgX<XN.q.0.S v S B q 7 8 - . . o   + .   . O o O O O .   . .   ; i X + % & 4 4 n p B J N Q 1.#.P ( i.t. .=.[ ",
"mXmXmXmXmXmXmXmXjXfX8X`.h.0...Z c x 8 q e 4 - . .     . . . # + . + . .   o #     o o o * @ @ 6 r s s t n L L @.;. .B i._.i.<.O.",
"mXmXmXmXmXmXmXmXjXwX1XN.k.{ S m d 8 0 % # > # # . . @ $ .   . . .       . o . .   . .   # @ X y 7 r n T H ( B H ' ' ^ -.4XH.-.a.",
"mXmXmXmXmXmXmXhXfX3X'.j.0...v c b 8 $ + . $ $ + .     * 4 i g s u i e * .   .     o . . . o e e 5 n B ( J T B v Y ( ` E 5X#X[ :.",
"mXmXmXmXmXmXgXhX0X X`.f...K c x b 7 + 0 + > - + + + 5 u i h H g f f f i 5 = + . + X X X   o i u 4 M J H B M B C B T ` s .XcX-.H ",
"mXmXmXmXmXmXkXpX1X`.N.e...S d d q 8 $ > + $ > * @ 5 h h g f i ; ; 5 i g g f & . + @ # # . # u : $ 7 s c n a M B B J [ n a.cXJ.r ",
"mXmXmXmXmXgXgX0X'.'.).k.F b q q q w $ > + + + + & N N u X X o     o X = u N g @ + @ @ . . * : @ - N B n J V B T H B v.t.! 5XP.e ",
"mXmXmXmXsXhXiX,XB.m.B.M.S q d d d d > % $ 3 7 s N g u o                 X u f g 4 . & & . @ & @ : U ] ( T ^ A F T Y -.d.Y U.Z.N ",
"mXmXmXmXsXpX0X1XM.r.b.s.G b G b b d 3 > 8 7 s H V e                         5 H H : & 4 2 @ : r e V  .} ^ ^ T E @.R T =.R :.d.#.",
"mXmXmXhXuXtX,X].f.;.;._ F D G G b q 8 w 9 7 M Y s     .                       f E f & 6 y & 2 g a a ( #.} ^ ^ ) ;.( J R ! [ i.b.",
"mXjXnXsXyXtX>X(.u.r.w.( F F F G G q q q p a U g o .                         o o H E t y y 2 2 s a a ` r.e.} ..} ;.^ ) R W [ d.S.",
"mXvXnXsXqXyX|.m.M.u.#.] E D / F G q b v 9 A E e   o                         *   i ! H t n c r v Y U s.K.y. .0. .#.)  .[ :.p.i.K.",
"mXfXhXaX7XqX(.s.u.$.' -./ D / F b q b B p ^ U =                             X   ; E _ Z L L c b W W ;.n.j.w.e.0.y.y.} ) p._.:.3.",
"mXgXgX7X2X4XK.t.<.@.` -.=./ O.F b q v S F [ f   o                             X   H r._ P P K E W W ( s.].f.0.w.y.j./ / t.L.=.%.",
"mXgXsX>X|.+X(.d.b.-.@.1.i.,.c.o.F M B ^  .%.5                                 X   g (.M.I I / O.o./ ` v.].f.q.f.w.O.] / o.:.+.%.",
"tXtXtX|.}.).K.s.d.i.;.-.O.o.c.c.o.W  .O.d.5.;                                 X   h $XyXN.$.0.c.c.p.e.c.H.f.y.j.s.#.O.O.:.>.[ %.",
"sXtX,X$X_.S.K.v.v.d.d.a.p.c.[.c.x.x.H.L.@X4.;   o                             =   f $XlX0X`.c._.c.c.c.O.e.y.e.0.y.-.] p.c.x.] -.",
"tXtX$X|.P.I.Y.H.v.x.v.J.c.c.W.W.L..X[.@X5XS.; o o                             X   f ).bXpX<X3X@XL.p.p.y.p.k.e.y.t.:.>.p._.L.&.5.",
"7XrX$X}.v.!.}.Z.H.Z.a.R.W.{.{.{.[.oX@X.X#X4.; X o                             o   f P.dXtXpX9XqX[.,.:.K.).j.j./.w.O.c.i..X_.2.a.",
"7XqX}.U.4.S.I.)._.U.8.I.{.Q.{.{.W.c.S.c.Z.&.=                                 o   f v.mXgXiX9XqX|.c.i._.).j././.w.:.H.a.@X.XS.T.",
"$X+XP.b.b.a.4.I.J.A.R.E.G.W.{.W.z.[ ! %.i.+.:                                 =   H $XmXmXfX9XqX2XK.s.H.j.p.n.c.p.p.>.L.&X#X_.XX",
"}._.Y.a.a.x.x.I.I.!.XX7.D.W.W.c.,./ ` :.<.-.;   o                             =   l zXbXmXmXjXqX5X#XP.K.p.i.c./.K.c.a.Y.#XeX_.XX",
"I.I.Y.V.p.Z._.Y.Y.*X!.2.D.W.c.,.O.]  .w.;.b.h   o                             =   U %XxXmXmXjXqXqX5X.X_.K.K.}.}.[.L.I.XX@XzX$X+X",
"b.Y.U.v.3.S.%X}.XXOXT.2.V.6.o.o./  . . .w.].-.= X o                         X = X &.T.4XyXmXjXuXrXrX%XoXR._.5X#X.X[.[.#X#XxXrX5X",
"7.I.U.t.Z.J.R.W.OX*XXXF.,.&.X.X./ ] t. .y.uX}.g o =                 .       X   i S._.).6XfXgXyXrXzX-XoXT..X.X@X@X@X#XeXeXxXuXyX",
"P.7.M.J.%XT.C.*XoXF.A.V.,.,.o.E T ] y.y.).vXuXE   ; .                       =   U _._.(.3XfXsXqXrXzXzX=X&XoX[.#XeXeXeXvXxXxXuXmX",
"Y.b.3.J.%X~.D.^.Q.F.S.p.5.:.X.F K  .t.j.3XdXbX[.g   =                     X   * X.K.H.N.3XgXaXqXrXxXzX=X=X5X5XeXeXeXnXvXdXmXmXmX",
"S.a.>.p.I.I.G.G.D.G.A.4.,.X.` A ^ #.w.(.jXjXmXcX5.  * o X               o o e H :.t.f.j.<XhXaXqXzXcXmXmXmXcXxXvXxXxXdXvXmXmXmXmX",
"2.2.2.4.4.*.G.Q.G.6.7.3.3.%.E T ( } 0.].hXhXmXxXXXU . X X           . o   = H #. .;.j./.6XhXaXqXxXmXmXmXmXmXxXuXuXvXmXmXmXmXmXmX",
"2.5.V.V.8.*.*.G.8.*.S.z.%.[ R #.$.' $. XlXhXmX4XXXb.E         o .       = U &.+.} 0.N.:X9XgXdXuXmXmXmXmXmXmXmXmXmXmXmXmXmXmXmXmX",
"E.&.V.C.D.9.6.9.8.*.D.L.,.[ ` ] ;.-.r.|.gXhXmX2X).b.2.~ H u       o i h E @.@._ { e.N.3XfXgXsXuXmXmXmXmXmXmXmXmXmXmXmXmXmXmXmXmX",
"C.7.I.S.8.G.G.9.9.8.D.L.p.[ ! ` @.-.b. XtXpXhXrXm.b.i.1.@.T H U H H L Q @._ _ { q.M.`.tXhXhXsXmXmXmXmXmXmXmXmXmXmXmXmXmXmXmXmXmX",
"*.R.~.Y.7.9.~.G.G.D.C.S.x.X.! E @.@.b.B.tXgXhXuX].M.u.#.-.+.@.+.-.@.@.@.L L @.0.M.B.>XsXsXsXdXmXmXmXmXmXmXmXmXmXmXmXmXmXmXmXmXmX",
"&.7.XX*X7.G.OX~.G.*.2.z.x.2.! ! @.Q 7.N.0XpXsXsX,XP.m.-._ Q _ Q Q L _ _ @.;.$.M.N.;XsXsXhXmXmXmXmXmXmXmXmXmXmXmXmXmXmXmXmXmXmXmX",
"&.&.7.R.8.9.zX*X8.8.4.4.S.6.! ! @.$.b.N.|.pXhXhXiX>X|.P.;.+.@._ _ 7.$.@.q.M.M.`.<XtXmXmXmXmXmXmXmXmXmXmXmXmXmXmXmXmXmXmXmXmXmXmX",
"b.&.&.7.E.G.zX=XC.F.A.a.z.2.[ E _ 7.b.M. XrXsXsXfXtX4X2XP.u.u.;.q.M.1.b.B. X>X3X,XmXmXmXmXmXmXmXmXmXmXmXmXmXmXmXmXmXmXmXmXmXmXmX",
"R.8.5.2.F.^.OXOXR.F.U.J.>.%.+.[ _ 7.r.M.).,XpXpXfXsXyX4X,X).m.m.m.B.B.B.|.3XyXmXmXmXmXmXmXmXmXmXmXmXmXmXmXmXmXmXmXmXmXmXmXmXmXmX",
"Y.!.7.7.F.!.~.R.~.R.A.K.<.<.2.b.1.-.r.b.m.,XtXtXhXjXmXmXyX4X|. X X|.,XtXdXmXmXmXmXmXmXmXmXmXmXmXmXmXmXmXmXmXmXmXmXmXmXmXmXmXmXmX",
"E.*X7.C.E.F.E.F.~.!.I.P.Z.4.2.b.-.$.7.b.(.$XuXdXdXsXmXmXuXsXuXuXyXmXmXmXmXmXmXmXmXmXmXmXmXmXmXmXmXmXmXmXmXmXmXmXmXmXmXmXmXmXmXmX",
"V.*XS.V.D.8.G.XX~.!.W.}.V.a.4.4.7.b.b.M.).$XbXbXdXmXmXmXmXmXmXmXmXmXmXmXmXmXmXmXmXmXmXmXmXmXmXmXmXmXmXmXmXmXmXmXmXmXmXmXmXmXmXmX",
"2.}.F.8.C.8.G.OX^.~.XX.XI.A.S.Y.}.Y.m.}.|.rXuXmXmXmXmXmXmXmXmXmXmXmXmXmXmXmXmXmXmXmXmXmXmXmXmXmXmXmXmXmXmXmXmXmXmXmXmXmXmXmXmXmX",
"2.S.R.C.E.C.~.^.^.OXOX%XXX!.!.-XrX$X+X$X$XrXmXmXmXmXmXmXmXmXmXmXmXmXmXmXmXmXmXmXmXmXmXmXmXmXmXmXmXmXmXmXmXmXmXmXmXmXmXmXmXmXmXmX",
"2.S.F.I.G.D.W.^.OXzXzX&X$X*X&XuXrXrXrXuXpXmXmXmXmXmXmXmXmXmXmXmXmXmXmXmXmXmXmXmXmXmXmXmXmXmXmXmXmXmXmXmXmXmXmXmXmXmXmXmXmXmXmXmX",
"J.A.R.~.OXOXOXmXmXmXmXzX5X5XrXuXuXvXmXmXmXmXmXmXmXmXmXmXmXmXmXmXmXmXmXmXmXmXmXmXmXmXmXmXmXmXmXmXmXmXmXmXmXmXmXmXmXmXmXmXmXmXmXmX",
".XXX%X5X&XmXmXmXmXmXmXmXmXmXmXmXmXmXmXmXmXmXmXmXmXmXmXmXmXmXmXmXmXmXmXmXmXmXmXmXmXmXmXmXmXmXmXmXmXmXmXmXmXmXmXmXmXmXmXmXmXmXmXmX",
"mX@X5XxXmXmXmXmXmXmXmXmXmXmXmXmXmXmXmXmXmXmXmXmXmXmXmXmXmXmXmXmXmXmXmXmXmXmXmXmXmXmXmXmXmXmXmXmXmXmXmXmXmXmXmXmXmXmXmXmXmXmXmXmX",
"mXzX5XmXmXmXmXmXmXmXmXmXmXmXmXmXmXmXmXmXmXmXmXmXmXmXmXmXmXmXmXmXmXmXmXmXmXmXmXmXmXmXmXmXmXmXmXmXmXmXmXmXmXmXmXmXmXmXmXmXmXmXmXmX"
};
